<?xml version="1.0" encoding="UTF-8"?>
<svg width="423px" height="91px" viewBox="0 0 423 91" version="1.1" xmlns="http://www.w3.org/2000/svg" xmlns:xlink="http://www.w3.org/1999/xlink">
    <!-- Generator: Sketch 58 (84663) - https://sketch.com -->
    <title>samgov_horizontal</title>
    <desc>Created with Sketch.</desc>
    <defs>
        <polygon id="path-1" points="0.06 0.875 119.641 0.875 119.641 90.94 0.06 90.94"></polygon>
    </defs>
    <g id="samgov_horizontal" stroke="none" stroke-width="1" fill="none" fill-rule="evenodd">
        <path d="M33.694,56.982 C35.689,56.426 37.871,55.941 40.197,55.532 L40.197,2.667 C33.35,4.041 27.865,6.06 23.551,8.198 L23.551,61.892 L23.669,61.892 C25.496,59.989 28.873,58.326 33.694,56.982" id="Fill-1" fill="#BA252E"></path>
        <path d="M96.112,68.396 C95.942,62.824 79.687,58.321 59.655,58.321 C39.624,58.321 23.368,62.824 23.198,68.396 L23.194,68.396 L23.194,79.797 C31.648,81.037 43.554,82.233 58.023,82.233 C75.311,82.233 87.52,81.342 96.116,80.232 L96.116,68.396 L96.112,68.396" id="Fill-2" fill="#16243A"></path>
        <path d="M29.071,69.394 C29.149,69.38 29.186,69.373 29.225,69.37 C30.104,69.332 30.985,69.296 31.865,69.262 C32.254,69.247 32.643,69.232 33.029,69.212 C33.068,69.209 33.123,69.168 33.137,69.135 C33.5,68.155 33.861,67.174 34.22,66.195 C34.3,65.975 34.379,65.761 34.46,65.546 C34.473,65.507 34.491,65.474 34.517,65.413 C34.641,65.739 34.756,66.037 34.867,66.336 C35.035,66.788 35.202,67.242 35.369,67.696 C35.541,68.156 35.716,68.616 35.882,69.08 C35.918,69.174 35.96,69.214 36.066,69.217 C37.3,69.256 38.537,69.302 39.768,69.347 C39.826,69.35 39.88,69.361 39.965,69.37 C39.88,69.442 39.817,69.498 39.751,69.552 C38.838,70.274 37.926,70.998 37.016,71.722 C36.808,71.886 36.812,71.888 36.885,72.143 C37.135,73.023 37.382,73.903 37.63,74.786 C37.712,75.078 37.796,75.37 37.878,75.666 C37.885,75.69 37.887,75.721 37.898,75.775 C37.639,75.606 37.402,75.453 37.167,75.296 C36.66,74.959 36.152,74.62 35.644,74.283 C35.315,74.062 34.982,73.848 34.654,73.624 C34.566,73.56 34.498,73.562 34.412,73.621 C33.363,74.326 32.314,75.031 31.267,75.735 C31.243,75.751 31.214,75.759 31.165,75.782 C31.227,75.552 31.285,75.344 31.343,75.135 C31.523,74.481 31.708,73.825 31.89,73.172 C32.001,72.778 32.108,72.382 32.221,71.989 C32.242,71.918 32.233,71.88 32.173,71.833 C31.442,71.262 30.713,70.688 29.984,70.114 C29.689,69.882 29.398,69.649 29.071,69.394" id="Fill-3" fill="#FFFFFE"></path>
        <path d="M52.864,68.633 C52.966,68.615 53.016,68.605 53.068,68.602 C54.249,68.55 55.432,68.502 56.613,68.457 C57.136,68.437 57.657,68.416 58.175,68.389 C58.228,68.385 58.302,68.331 58.32,68.286 C58.81,66.971 59.292,65.653 59.776,64.339 C59.882,64.045 59.987,63.757 60.096,63.468 C60.113,63.416 60.137,63.371 60.174,63.289 C60.34,63.727 60.493,64.127 60.642,64.528 C60.868,65.136 61.091,65.745 61.318,66.355 C61.546,66.972 61.782,67.59 62.006,68.212 C62.052,68.338 62.109,68.392 62.252,68.396 C63.909,68.449 65.568,68.511 67.223,68.57 C67.3,68.574 67.372,68.589 67.487,68.602 C67.372,68.698 67.286,68.774 67.198,68.846 C65.974,69.816 64.751,70.786 63.528,71.758 C63.249,71.979 63.254,71.982 63.353,72.324 C63.687,73.505 64.018,74.687 64.351,75.872 C64.461,76.264 64.573,76.656 64.685,77.053 C64.695,77.086 64.698,77.127 64.711,77.2 C64.364,76.973 64.045,76.768 63.73,76.557 C63.05,76.105 62.368,75.649 61.687,75.196 C61.245,74.9 60.796,74.613 60.357,74.312 C60.236,74.227 60.148,74.23 60.031,74.309 C58.624,75.255 57.215,76.201 55.809,77.146 C55.777,77.168 55.738,77.179 55.673,77.208 C55.758,76.9 55.834,76.621 55.911,76.34 C56.154,75.462 56.401,74.583 56.646,73.706 C56.795,73.177 56.939,72.645 57.091,72.118 C57.117,72.023 57.106,71.971 57.026,71.908 C56.044,71.142 55.066,70.371 54.087,69.6 C53.692,69.289 53.3,68.977 52.864,68.633" id="Fill-4" fill="#FFFFFE"></path>
        <g id="Group-10">
            <mask id="mask-2" fill="white">
                <use xlink:href="#path-1"></use>
            </mask>
            <g id="Clip-6"></g>
            <path d="M79.804,69.394 C79.882,69.38 79.918,69.373 79.956,69.37 C80.837,69.332 81.718,69.296 82.598,69.262 C82.985,69.247 83.375,69.232 83.762,69.212 C83.801,69.209 83.856,69.168 83.869,69.135 C84.234,68.155 84.594,67.174 84.952,66.195 C85.032,65.975 85.111,65.761 85.193,65.546 C85.205,65.507 85.223,65.474 85.25,65.413 C85.373,65.739 85.487,66.037 85.6,66.336 C85.768,66.788 85.933,67.242 86.103,67.696 C86.273,68.156 86.448,68.616 86.615,69.08 C86.65,69.174 86.692,69.214 86.798,69.217 C88.032,69.256 89.268,69.302 90.501,69.347 C90.559,69.35 90.612,69.361 90.697,69.37 C90.612,69.442 90.549,69.498 90.483,69.552 C89.571,70.274 88.659,70.998 87.748,71.722 C87.54,71.886 87.545,71.888 87.618,72.143 C87.867,73.023 88.113,73.903 88.36,74.786 C88.443,75.078 88.527,75.37 88.61,75.666 C88.617,75.69 88.62,75.721 88.63,75.775 C88.371,75.606 88.134,75.453 87.9,75.296 C87.393,74.959 86.885,74.62 86.377,74.283 C86.048,74.062 85.714,73.848 85.387,73.624 C85.297,73.56 85.231,73.562 85.144,73.621 C84.095,74.326 83.047,75.031 81.999,75.735 C81.975,75.751 81.946,75.759 81.898,75.782 C81.959,75.552 82.018,75.344 82.075,75.135 C82.256,74.481 82.44,73.825 82.622,73.172 C82.733,72.778 82.84,72.382 82.953,71.989 C82.974,71.918 82.965,71.88 82.906,71.833 C82.175,71.262 81.444,70.688 80.717,70.114 C80.421,69.882 80.129,69.649 79.804,69.394" id="Fill-5" fill="#FFFFFE" mask="url(#mask-2)"></path>
            <path d="M60.014,53.968 C62.522,53.968 64.992,54.038 67.398,54.174 L67.398,1.097 C65.159,0.953 62.814,0.875 60.355,0.875 C56.947,0.875 53.749,1.023 50.751,1.292 L50.751,54.295 C53.741,54.08 56.848,53.968 60.014,53.968" id="Fill-7" fill="#BA252E" mask="url(#mask-2)"></path>
            <path d="M86.344,57.38 C90.826,58.629 94.062,60.155 95.962,61.892 L96.238,61.892 L96.238,8.996 C92.004,6.78 86.532,4.66 79.591,3.215 L79.591,55.887 C82.011,56.305 84.277,56.804 86.344,57.38" id="Fill-8" fill="#BA252E" mask="url(#mask-2)"></path>
            <path d="M0.003,79.687 L0.079,85.933 C1.806,86.263 3.688,86.603 5.727,86.942 C16.86,88.793 34.954,91 57.932,91 C89.782,91 108.61,88.774 119.641,86.667 L119.641,79.66 L119.63,79.656 C119.607,79.387 119.548,79.117 119.445,78.853 C118.873,77.387 117.221,76.663 115.754,77.234 C115.47,77.346 115.161,77.473 114.804,77.621 C110.346,79.462 96.78,85.064 58.188,85.064 C40.638,85.064 26.818,82.857 18.314,81.005 C9.095,78.998 3.962,76.964 3.911,76.944 C2.452,76.359 0.794,77.066 0.207,78.526 C0.095,78.804 0.03,79.089 0.009,79.373 L0,79.382 L0.003,79.578 C0.002,79.614 0.003,79.65 0.003,79.687" id="Fill-9" fill="#16243A" mask="url(#mask-2)"></path>
        </g>
        <path d="M261.674,48.949 C261.211,50.363 260.841,51.815 260.269,53.183 C257.873,58.908 255.421,64.609 252.981,70.315 C252.404,71.663 251.772,72.986 251.205,74.338 C250.931,74.995 250.524,75.289 249.794,75.268 C248.403,75.227 247.003,75.334 245.621,75.214 C245.122,75.171 244.42,74.763 244.225,74.333 C241.566,68.509 238.921,62.676 236.405,56.789 C235.485,54.634 234.914,52.33 234.179,50.096 C234.061,49.737 233.92,49.386 233.79,49.031 C233.692,49.036 233.595,49.041 233.497,49.046 C233.497,49.459 233.465,49.875 233.502,50.284 C234.434,60.697 234.495,71.136 234.433,81.579 C234.421,83.604 234.43,83.605 232.351,83.605 C229.837,83.605 227.322,83.568 224.81,83.622 C223.721,83.645 223.283,83.272 223.283998,82.154 C223.303,62.777 223.302,43.401 223.285,24.024 C223.283998,22.969 223.596,22.464 224.744,22.492 C227.141,22.549 229.54,22.53 231.938,22.497 C232.734,22.486 233.19,22.735 233.514,23.516 C237.72,33.629 241.975,43.722 246.17,53.839 C246.753,55.246 247.084,56.757 247.608,58.471 C247.772,57.986 247.848,57.721 247.948,57.465 C249.793,52.766 251.584,48.044 253.502,43.375 C256.213,36.776 259.028,30.22 261.768,23.632 C262.091,22.855 262.485,22.472 263.377,22.492 C265.773,22.543 268.173,22.547 270.569,22.492 C271.7,22.466 272.026,22.922 272.025002,24.007 C272.002,43.345 272.01,62.683 272.007,82.021 C272.007,83.47 271.871,83.601 270.399,83.603 C267.731,83.608 265.062,83.575 262.394,83.619 C261.36,83.637 260.882,83.26 260.911,82.212 C261.182,72.552 261.436,62.891 261.715,53.231 C261.755,51.822 261.899,50.415 261.996,49.006 C261.889,48.987 261.781,48.968 261.674,48.949" id="Fill-11" fill="#16243A"></path>
        <path d="M196.943,61.869 C196.621,61.99 196.257,61.96 196.257,61.96 C194.015,61.999 191.772,61.997 189.53,61.961 C189.353,61.958 189.199,61.945 189.064,61.925 C187.825,61.879 188.404,60.528 188.404,60.528 L192.86,41.654 C192.86,41.654 195.943,54.745 197.031,59.39 C197.122,59.757 197.214,60.124 197.306,60.491 C197.348,60.661 197.377,60.812 197.394,60.947 C197.45,61.197 197.424,61.383 197.353,61.526 C197.349,61.535 197.344,61.544 197.339,61.552 C197.332,61.565 197.326,61.579 197.318,61.591 C197.243,61.719 197.121,61.81 196.943,61.869 Z M215.195,81.704 C211.66,70.08 208.115,58.458 204.572,46.836 C202.222,39.125 199.855,31.419 197.536,23.697 C197.264,22.788 196.831,22.465 195.901,22.492 C193.93,22.549 191.954,22.558 189.984,22.489 C188.948,22.453 188.502,22.847 188.206,23.83 C184.774,35.204 181.295,46.564 177.836,57.929 C175.388,65.973 172.946,74.02 170.516,82.069 C170.143,83.303 170.374,83.593 171.686,83.6 C174.702,83.614 177.72,83.588 180.736,83.614 C181.578,83.6218927 181.977,83.268 182.194,82.465 C183.014,79.451 183.92,76.46 184.72,73.441 C184.972,72.49 185.427,72.127 186.408,72.136 C190.701,72.173 194.995,72.176 199.288,72.133 C200.276,72.123 200.726,72.481 200.981,73.427 C201.795,76.443 202.705,79.434 203.544,82.443 C203.777,83.279 204.21,83.652 205.107,83.62 C206.614,83.564 208.124,83.605 209.633,83.605 C211.024,83.605 212.417,83.607 213.81,83.604 C215.551,83.6 215.712,83.403 215.195,81.704 L215.195,81.704 Z" id="Fill-12" fill="#16243A"></path>
        <path d="M155.266,51.46 C153.524,50.325 151.699,49.298 149.839,48.369 C147.045,46.974 144.153,45.775 141.365,44.369 C139.216,43.285 137.542,41.711 137.36,39.091 C137.171,36.354 138.418,34.305 140.612,32.83 C144.109,30.479 149.28,31.587 151.536,35.126 C151.97,35.806 152.344,36.533 152.663,37.274 C153.021,38.103 153.493,38.261 154.292,37.843 C156.926,36.469 159.57,35.114 162.231,33.793 C162.998,33.412 163.132,32.925 162.782,32.208 C161.611,29.809 160.192,27.701 158.417,26.013 C158.399,25.993 158.056,25.639 157.412,25.136 C157.12,24.902 156.816,24.679 156.506,24.466 L156.482,24.466 C155.621,23.891 154.482,23.25 153.087,22.72 C153.08,22.717 153.074,22.715 153.067,22.712 C152.973,22.676 152.874,22.643 152.777,22.607 C152.646,22.561 152.512,22.514 152.376,22.469 C152.332,22.455 152.288,22.44 152.244,22.426 C152.111,22.384 151.979,22.342 151.842,22.302 C151.788,22.286 151.733,22.271 151.679,22.255 C151.55,22.219 151.419,22.183 151.287,22.148 C151.22,22.131 151.151,22.115 151.084,22.098 C150.96,22.067 150.835,22.037 150.708,22.009 C150.625,21.99 150.541,21.974 150.458,21.957 C150.341,21.932 150.224,21.908 150.105,21.886 C150.003,21.867 149.899,21.851 149.796,21.833 C149.691,21.816 149.585,21.797 149.478,21.781 C149.348,21.762 149.215,21.746 149.082,21.73 C148.996,21.719 148.912,21.707 148.825,21.697 C148.604,21.673 148.378,21.652 148.149,21.637 C148.149,21.636 148.148,21.636 148.147,21.636 C146.213,21.501 144.65,21.456 143.307,21.499 C143.306,21.499 143.305,21.499 143.303,21.499 C142.622,21.522 141.998,21.567 141.411,21.636 C141.405,21.637 141.4,21.637 141.396,21.638 C141.286,21.651 141.178,21.665 141.07,21.679 C141.061,21.68 141.051,21.682 141.041,21.683 C140.938,21.697 140.834,21.712 140.732,21.728 C140.722,21.729 140.712,21.731 140.703,21.732 C140.599,21.749 140.496,21.766 140.394,21.784 C140.387,21.785 140.381,21.786 140.374,21.787 C139.94,21.864 139.522,21.955 139.108,22.061 C139.085,22.066 139.061,22.073 139.036,22.08 C138.962,22.099 138.887,22.119 138.813,22.139 C138.777,22.149 138.743,22.159 138.709,22.169 C138.645,22.187 138.58,22.205 138.517,22.223 C138.477,22.235 138.438,22.247 138.399,22.258 C138.339,22.276 138.28,22.294 138.221,22.312 C138.179,22.326 138.137,22.339 138.094,22.352 C138.037,22.37 137.981,22.389 137.924,22.407 C137.58,22.519 137.234,22.641 136.881,22.774 L136.881,22.754 C136.386,22.934 135.906,23.129 135.447,23.345 C135.438,23.349 135.429,23.352 135.419,23.356 C135.322,23.396 135.237,23.438 135.158,23.48 C126.483,27.745 124.333,38.304 127.869,46.255 C129.581,50.104 132.662,52.664 136.257,54.612 C139.985,56.632 143.814,58.47 147.569,60.442 C148.552,60.958 149.505,61.589 150.34,62.317 C152.644,64.324 153.327,67.143 152.288,69.874 C152.18,70.159 152.051,70.431 151.909,70.694 L151.913,70.694 C151.913,70.694 151.245,72.491 148.854,73.653 C148.693,73.732 148.53,73.805 148.363,73.872 C148.363,73.872 148.361,73.873 148.36,73.873 C145.567,75.011 142.412,74.785 140.272,74.208 C140.271,74.208 140.271,74.208 140.271,74.208 C139.514,74.031 138.818,73.708 138.224,73.217 C137.622,72.749 137.379,72.329 137.379,72.329 L137.361,72.304 C137.066,71.935 136.786,71.549 136.52,71.155 L136.509,71.139 C136.007,70.394 135.542,69.618 135.073,68.854 C134.701,68.246 134.389,67.846 133.627,68.236 C130.881,69.644 128.128,71.037 125.373,72.429 C124.735,72.752 124.582,73.201 124.898,73.848 C127.149,78.462 130.301,82.1 135.41,83.659 C139.684,84.963 144.066,84.792 148.401,84.371 C150.655,84.151 152.992,83.512 155.023,82.514 C160.421,79.861 163.187,75.274 163.679,69.323 C164.303,61.767 161.729,55.671 155.266,51.46" id="Fill-13" fill="#16243A"></path>
        <path d="M276.957,76.662 C277.103,76.635 277.175,76.62 277.25,76.616 C278.951,76.541 280.655,76.472 282.358,76.407 C283.11,76.378 283.863,76.348 284.608,76.309 C284.685,76.304 284.791,76.225 284.817,76.161 C285.523,74.266 286.218,72.368 286.914,70.475 C287.067,70.05 287.22,69.635 287.376,69.22 C287.401,69.145 287.436,69.079 287.488,68.962 C287.727,69.592 287.948,70.168 288.162,70.748 C288.489,71.622 288.81,72.5 289.136,73.378 C289.466,74.268 289.806,75.158 290.128,76.054 C290.194,76.237 290.277,76.313 290.483,76.319 C292.87,76.396 295.26,76.485 297.644,76.571 C297.755,76.577 297.859,76.598 298.025,76.616 C297.859,76.755 297.735,76.863 297.609,76.967 C295.845,78.365 294.083,79.763 292.321,81.164 C291.919,81.482 291.926,81.486 292.068,81.979 C292.549,83.681 293.027,85.384 293.507,87.091 C293.665,87.656 293.827,88.221 293.986,88.792 C294.003,88.84 294.007,88.9 294.025,89.004 C293.525,88.677 293.065,88.381 292.612,88.078 C291.632,87.426 290.65,86.77 289.667,86.117 C289.031,85.691 288.384,85.276 287.753,84.843 C287.579,84.72 287.45,84.725 287.283,84.838 C285.255,86.202 283.226,87.565 281.198,88.926 C281.154,88.958 281.098,88.974 281.003,89.017 C281.126,88.573 281.235,88.17 281.347,87.766 C281.698,86.5 282.053,85.233 282.405,83.97 C282.619,83.208 282.827,82.441 283.047,81.681 C283.085,81.545 283.067,81.471 282.953,81.379 C281.537,80.276 280.129,79.166 278.719,78.055 C278.148,77.607 277.584,77.156 276.957,76.662" id="Fill-14" fill="#BA252E"></path>
        <path d="M321.773,36.379 C322.589,36.478 323.414,36.535 324.222,36.681 C329.421,37.623 333.104,40.592 335.55,45.201 C336.651,47.277 337.364,49.49 337.887,51.771 C337.901,51.835 337.888,51.906 337.888,51.992 C336.4,51.992 334.92,51.992 333.405,51.992 C333.252,51.409 333.108,50.817 332.94,50.233 C332.403,48.368 331.647,46.607 330.492,45.03 C328.836,42.765 326.639,41.327 323.895,40.758 C321.065,40.171 318.266,40.343 315.56,41.359 C313.413,42.167 311.689,43.573 310.356,45.442 C308.511,48.026 307.604,50.974 307.084,54.061 C306.43,57.949 306.393,61.86 306.75,65.776 C307.011,68.626 307.579,71.412 308.742,74.049 C309.871,76.607 311.51,78.741 313.951,80.173 C315.275,80.951 316.72,81.427 318.242,81.65 C320.684,82.005 323.097,81.93 325.449,81.118 C327.517,80.404 329.199,79.149 330.512,77.407 C332.259,75.087 333.194,72.418 333.676,69.599 C334.002,67.688 334.141,65.744 334.357,63.814 C334.379,63.623 334.36,63.427 334.36,63.181 C329.856,63.181 325.357,63.181 320.839,63.181 C320.839,61.818 320.839,60.508 320.839,59.164 C326.854,59.164 332.865,59.164 338.933,59.164 C338.953,59.487 338.987,59.816 338.992,60.146 C339.047,63.71 338.8,67.248 337.987,70.728 C337.212,74.051 335.982,77.183 333.862,79.9 C331.277,83.213 327.874,85.119 323.723,85.696 C322.937,85.805 322.143,85.862 321.353,85.942 C320.988,85.942 320.624,85.942 320.261,85.942 C319.443,85.86 318.622,85.804 317.809,85.69 C313.345,85.066 309.716,82.984 306.995,79.382 C305.09,76.86 303.899,73.996 303.123,70.952 C302.457,68.342 302.123,65.684 302.028,62.995 C302.012,62.523 301.975,62.052 301.947,61.581 C301.947,61.329 301.947,61.077 301.947,60.825 C301.968,60.66 301.994,60.496 302.007,60.33 C302.153,58.52 302.223,56.7 302.457,54.901 C302.962,51.025 304.107,47.35 306.243,44.036 C308.941,39.85 312.752,37.367 317.685,36.623 C318.29,36.532 318.898,36.46 319.504,36.379 C320.261,36.379 321.017,36.379 321.773,36.379" id="Fill-15" fill="#16243A"></path>
        <path d="M378.123,61.036 C378.095,58.77 377.972,56.34 377.546,53.935 C377.022,50.966 376.157,48.125 374.422,45.609 C372.73,43.157 370.436,41.538 367.548,40.861 C364.707,40.195 361.858,40.264 359.07,41.215 C356.732,42.013 354.87,43.459 353.441,45.46 C351.369,48.362 350.496,51.697 350.005,55.158 C349.628779,57.798 349.578,60.458 349.666,63.118 C349.738,65.302 349.96,67.471 350.429,69.608 C350.974,72.094 351.794,74.469 353.252,76.591 C355.073,79.243 357.551,80.904 360.702,81.53 C363.252,82.037 365.79,81.975 368.295,81.227 C370.213,80.653 371.865,79.634 373.232,78.182 C375.221,76.071 376.331,73.496 377.052,70.728 C377.864,67.606 378.091,64.417 378.123,61.036 Z M363.356,85.942 C362.537,85.86 361.716,85.804 360.902,85.69 C356.676,85.1 353.171,83.197 350.475,79.871 C348.49,77.422 347.234,74.605 346.393,71.588 C345.729,69.209 345.361,66.782 345.196,64.321 C345.009,61.535 345.048,58.755 345.381,55.983 C345.813,52.38 346.682,48.899 348.382,45.664 C350.543,41.55 353.698,38.564 358.211,37.213 C359.499,36.828 360.865,36.704 362.195,36.459 C362.33,36.435 362.465,36.406 362.599,36.379 C363.467,36.379 364.335,36.379 365.203,36.379 C365.989,36.488 366.781,36.567 367.562,36.711 C372.391,37.601 376.047,40.187 378.617,44.357 C380.296,47.081 381.304,50.05 381.919,53.169 C382.507,56.145 382.71,59.153 382.648,62.183 C382.588,65.057 382.283,67.903 381.591,70.696 C380.745,74.109 379.408,77.297 377.148,80.036 C374.734,82.959 371.651,84.786 367.936,85.509 C366.897,85.712 365.829,85.764 364.774,85.886 C364.665,85.899 364.557,85.923 364.447,85.942 C364.083,85.942 363.719,85.942 363.356,85.942 L363.356,85.942 Z" id="Fill-16" fill="#16243A"></path>
        <path d="M422.883,37.455 C422.514,38.542 422.17,39.557 421.824,40.571 C416.845,55.201 411.864,69.83 406.895,84.462 C406.79,84.77 406.66,84.864 406.341,84.858 C405.109,84.838 403.877,84.837 402.646,84.8592591 C402.311,84.865 402.174,84.768 402.064,84.444 C398.551,74.137 395.024,63.835 391.501,53.532 C389.713,48.301 387.925,43.07 386.138,37.839 C386.103,37.735 386.076,37.628 386.035,37.489 C386.161,37.476 386.265,37.457 386.368,37.457 C387.712,37.455 389.057,37.465 390.4,37.447 C390.692,37.443 390.811,37.542 390.899,37.809 C395.352,51.099 399.81,64.387 404.268,77.675 C404.315,77.815 404.368,77.955 404.526,78.105 C404.578,77.976 404.637,77.849 404.681,77.717 C409.104,64.477 413.527,51.237 417.935,37.991 C418.074,37.569 418.24,37.433 418.683,37.443 C420.052,37.476 421.423,37.455 422.883,37.455" id="Fill-17" fill="#16243A"></path>
    </g>
</svg>