<svg xmlns="http://www.w3.org/2000/svg" viewBox="0 0 470.027 100.174">
<g id="beta">
	<path fill="#CF1D2A" d="M322.353,10.982c-3.852,0-6.619,1.729-8.152,4.398h-0.098V0.358h-4.301v28.908
		c0,2.125-0.098,4.547-0.197,6.177h3.756l0.197-3.952h0.148c1.779,3.163,4.547,4.496,8.006,4.496c5.336,0,10.723-4.25,10.723-12.799
		C332.486,15.925,328.285,10.982,322.353,10.982z M320.822,32.527c-3.16,0-5.682-2.075-6.521-5.089
		c-0.1-0.494-0.197-1.038-0.197-1.581v-4.3c0-0.692,0.148-1.285,0.248-1.778c0.889-3.312,3.656-5.338,6.619-5.338
		c4.646,0,7.117,4.102,7.117,8.896C328.087,28.822,325.369,32.527,320.822,32.527z"/>
	<path fill="#CF1D2A" d="M347.41,10.982c-6.967,0-11.217,5.684-11.217,12.897c0,7.216,4.396,12.058,11.76,12.058
		c3.807,0,6.424-0.79,7.957-1.482l-0.742-3.112c-1.631,0.691-3.508,1.235-6.623,1.235c-4.348,0-8.102-2.422-8.201-8.302h16.801
		c0.049-0.445,0.148-1.138,0.148-2.026C357.292,17.852,355.216,10.982,347.41,10.982z M340.394,21.163
		c0.344-3.015,2.271-7.066,6.67-7.066c4.893,0,6.078,4.298,6.027,7.066H340.394z"/>
	<path fill="#CF1D2A" d="M367.917,4.658l-4.248,1.137v5.731h-3.707v3.312h3.707v13.046c0,2.815,0.443,4.94,1.68,6.227
		c1.037,1.186,2.668,1.827,4.693,1.827c1.682,0,3.016-0.247,3.855-0.593l-0.197-3.262c-0.545,0.148-1.385,0.297-2.521,0.297
		c-2.42,0-3.262-1.681-3.262-4.645V14.838h6.227v-3.312h-6.227V4.658z"/>
	<path fill="#CF1D2A" d="M395.839,29.712v-8.944c0-4.793-1.779-9.785-9.094-9.785c-3.014,0-5.881,0.841-7.855,2.125l0.986,2.867
		c1.682-1.088,4.004-1.779,6.227-1.779c4.893,0,5.438,3.558,5.438,5.533v0.495c-9.242-0.049-14.383,3.113-14.383,8.895
		c0,3.46,2.473,6.869,7.314,6.869c3.41,0,5.98-1.68,7.314-3.558h0.148l0.346,3.014h3.953
		C395.937,33.813,395.839,31.787,395.839,29.712z M391.638,27.388c0,0.444-0.098,0.939-0.246,1.384
		c-0.693,2.026-2.67,4.003-5.783,4.003c-2.223,0-4.1-1.334-4.1-4.15c0-4.646,5.385-5.486,10.129-5.387V27.388z"/>
</g>
<g id="GOV">
	<path id="path38" fill="#1A2D4B" d="M357.646,39.463c0.91,0.109,1.824,0.173,2.723,0.336c5.779,1.047,9.873,4.346,12.592,9.47
		c1.225,2.308,2.018,4.766,2.598,7.303c0.016,0.071,0.002,0.149,0.002,0.244c-1.654,0-3.301,0-4.982,0
		c-0.17-0.647-0.33-1.305-0.516-1.954c-0.598-2.073-1.439-4.03-2.723-5.783c-1.84-2.518-4.283-4.115-7.332-4.748
		c-3.146-0.652-6.258-0.462-9.266,0.668c-2.387,0.896-4.303,2.461-5.785,4.537c-2.049,2.874-3.059,6.15-3.635,9.58
		c-0.729,4.321-0.768,8.669-0.371,13.021c0.291,3.169,0.922,6.265,2.215,9.195c1.254,2.843,3.076,5.216,5.789,6.808
		c1.471,0.864,3.076,1.394,4.77,1.641c2.713,0.396,5.396,0.312,8.01-0.591c2.297-0.793,4.168-2.188,5.627-4.125
		c1.941-2.578,2.982-5.545,3.516-8.679c0.365-2.124,0.518-4.283,0.758-6.429c0.025-0.213,0.004-0.432,0.004-0.704
		c-5.008,0-10.006,0-15.029,0c0-1.515,0-2.971,0-4.465c6.688,0,13.367,0,20.113,0c0.02,0.358,0.059,0.724,0.066,1.091
		c0.059,3.961-0.215,7.896-1.117,11.763c-0.863,3.693-2.23,7.174-4.588,10.195c-2.871,3.681-6.654,5.8-11.27,6.44
		c-0.873,0.123-1.754,0.186-2.633,0.275c-0.404,0-0.811,0-1.215,0c-0.908-0.093-1.82-0.153-2.725-0.28
		c-4.961-0.693-8.994-3.008-12.02-7.013c-2.117-2.803-3.439-5.987-4.303-9.37c-0.74-2.899-1.113-5.854-1.219-8.844
		c-0.018-0.524-0.059-1.048-0.088-1.571c0-0.28,0-0.56,0-0.84c0.021-0.184,0.051-0.367,0.066-0.551
		c0.162-2.012,0.238-4.035,0.5-6.034c0.561-4.309,1.832-8.393,4.207-12.077c3-4.651,7.236-7.412,12.717-8.239
		c0.674-0.101,1.35-0.181,2.023-0.271C355.966,39.463,356.806,39.463,357.646,39.463"/>
	<path id="path40" fill="#1A2D4B" d="M420.281,66.869c-0.033-2.52-0.168-5.219-0.643-7.894c-0.582-3.3-1.543-6.457-3.471-9.254
		c-1.881-2.726-4.43-4.525-7.643-5.278c-3.156-0.739-6.322-0.663-9.422,0.395c-2.598,0.887-4.668,2.494-6.256,4.719
		c-2.303,3.226-3.273,6.932-3.82,10.778c-0.416,2.935-0.473,5.891-0.377,8.848c0.08,2.428,0.328,4.839,0.85,7.214
		c0.604,2.763,1.518,5.403,3.137,7.762c2.025,2.947,4.779,4.794,8.281,5.489c2.834,0.564,5.656,0.495,8.439-0.337
		c2.133-0.637,3.969-1.77,5.488-3.385c2.209-2.346,3.443-5.208,4.244-8.284C419.994,74.171,420.244,70.627,420.281,66.869
		L420.281,66.869z M403.865,94.552c-0.908-0.093-1.82-0.155-2.725-0.281c-4.697-0.656-8.594-2.771-11.59-6.468
		c-2.207-2.723-3.602-5.853-4.537-9.207c-0.738-2.645-1.146-5.341-1.33-8.077c-0.209-3.096-0.164-6.188,0.205-9.267
		c0.48-4.005,1.445-7.874,3.336-11.471c2.4-4.571,5.908-7.891,10.926-9.393c1.43-0.428,2.949-0.566,4.428-0.838
		c0.15-0.027,0.299-0.059,0.447-0.089c0.965,0,1.932,0,2.895,0c0.875,0.121,1.756,0.209,2.621,0.369
		c5.367,0.989,9.432,3.863,12.289,8.498c1.867,3.028,2.986,6.328,3.67,9.794c0.654,3.309,0.879,6.652,0.811,10.02
		c-0.068,3.194-0.404,6.357-1.176,9.462c-0.939,3.794-2.426,7.338-4.938,10.382c-2.682,3.249-6.109,5.28-10.24,6.084
		c-1.154,0.224-2.34,0.282-3.512,0.419c-0.123,0.014-0.244,0.04-0.365,0.062C404.675,94.552,404.271,94.552,403.865,94.552"/>
	<path id="path42" fill="#1A2D4B" d="M470.031,40.659c-0.41,1.207-0.793,2.335-1.178,3.463
		c-5.533,16.26-11.068,32.521-16.594,48.785c-0.115,0.342-0.26,0.446-0.613,0.439c-1.369-0.022-2.74-0.023-4.109,0.001
		c-0.373,0.007-0.523-0.102-0.646-0.462c-3.904-11.455-7.822-22.906-11.74-34.358c-1.988-5.813-3.975-11.628-5.963-17.442
		c-0.037-0.115-0.066-0.234-0.113-0.389c0.141-0.014,0.256-0.036,0.371-0.036c1.494-0.002,2.988,0.01,4.482-0.01
		c0.324-0.005,0.455,0.104,0.555,0.402c4.947,14.771,9.902,29.54,14.859,44.31c0.053,0.156,0.111,0.312,0.287,0.478
		c0.057-0.143,0.121-0.283,0.17-0.431c4.916-14.716,9.834-29.432,14.732-44.155c0.154-0.469,0.34-0.62,0.83-0.608
		C466.884,40.681,468.408,40.659,470.031,40.659"/>
</g>
<path id="star" fill="#CF1D2A" d="M307.835,84.236c0.162-0.029,0.242-0.046,0.326-0.051c1.891-0.083,3.785-0.159,5.678-0.231
	c0.836-0.033,1.672-0.065,2.5-0.109c0.084-0.006,0.203-0.093,0.234-0.166c0.783-2.105,1.555-4.215,2.33-6.318
	c0.17-0.474,0.338-0.935,0.512-1.396c0.029-0.083,0.066-0.155,0.125-0.286c0.266,0.701,0.512,1.341,0.75,1.985
	c0.363,0.972,0.721,1.948,1.082,2.924c0.365,0.989,0.744,1.979,1.102,2.975c0.074,0.202,0.166,0.288,0.395,0.294
	c2.654,0.086,5.311,0.185,7.961,0.279c0.123,0.008,0.24,0.031,0.424,0.051c-0.184,0.154-0.322,0.274-0.463,0.391
	c-1.961,1.553-3.92,3.107-5.879,4.664c-0.447,0.354-0.439,0.359-0.281,0.906c0.537,1.892,1.066,3.785,1.6,5.683
	c0.176,0.627,0.355,1.255,0.533,1.892c0.02,0.052,0.023,0.118,0.043,0.233c-0.555-0.362-1.064-0.692-1.568-1.029
	c-1.092-0.724-2.182-1.453-3.275-2.179c-0.707-0.474-1.426-0.935-2.127-1.416c-0.193-0.137-0.336-0.132-0.523-0.006
	c-2.254,1.516-4.51,3.031-6.764,4.545c-0.047,0.035-0.111,0.052-0.215,0.101c0.135-0.494,0.258-0.942,0.381-1.391
	c0.391-1.406,0.785-2.815,1.178-4.219c0.236-0.849,0.469-1.7,0.711-2.545c0.043-0.15,0.025-0.234-0.102-0.335
	c-1.574-1.228-3.141-2.461-4.707-3.696C309.16,85.287,308.533,84.785,307.835,84.236"/>
<g id="SAM">
	<path id="path30" fill="#1A2D4B" d="M290.849,53.433c-0.515,1.572-0.926,3.187-1.562,4.706c-2.661,6.363-5.389,12.7-8.102,19.043
		c-0.64,1.498-1.342,2.969-1.972,4.47c-0.306,0.731-0.759,1.058-1.569,1.034c-1.547-0.045-3.103,0.074-4.637-0.059
		c-0.555-0.048-1.336-0.501-1.555-0.979c-2.954-6.475-5.895-12.958-8.689-19.502c-1.023-2.395-1.658-4.956-2.475-7.438
		c-0.133-0.398-0.289-0.789-0.434-1.184c-0.108,0.005-0.218,0.012-0.326,0.017c0,0.459-0.034,0.921,0.006,1.376
		c1.037,11.575,1.105,23.177,1.036,34.783c-0.014,2.253-0.003,2.253-2.315,2.253c-2.793,0-5.589-0.041-8.382,0.018
		c-1.21,0.026-1.696-0.388-1.694-1.632c0.02-21.536,0.018-43.072,0.001-64.609c0-1.173,0.344-1.734,1.621-1.703
		c2.664,0.063,5.331,0.042,7.996,0.006c0.886-0.013,1.391,0.265,1.752,1.132c4.675,11.241,9.403,22.459,14.067,33.705
		c0.647,1.562,1.016,3.242,1.598,5.147c0.182-0.539,0.268-0.834,0.377-1.118c2.051-5.224,4.042-10.471,6.174-15.66
		c3.014-7.335,6.143-14.622,9.188-21.944c0.359-0.864,0.798-1.289,1.789-1.269c2.664,0.058,5.33,0.062,7.994,0.001
		c1.258-0.028,1.619,0.479,1.617,1.685c-0.025,21.494-0.018,42.987-0.019,64.481c-0.001,1.61-0.151,1.756-1.788,1.759
		c-2.967,0.005-5.932-0.031-8.898,0.019c-1.148,0.018-1.68-0.401-1.646-1.565c0.299-10.737,0.581-21.474,0.893-32.211
		c0.045-1.567,0.206-3.131,0.312-4.696C291.087,53.477,290.966,53.455,290.849,53.433"/>
	<path fill="#1A2D4B" d="M239.187,89.84c-3.928-12.92-7.868-25.837-11.806-38.754c-2.613-8.571-5.246-17.137-7.821-25.719
		c-0.303-1.012-0.784-1.37-1.817-1.34c-2.191,0.062-4.387,0.073-6.577-0.003c-1.151-0.041-1.647,0.397-1.976,1.49
		c-3.815,12.642-7.682,25.268-11.527,37.9c-2.721,8.94-5.435,17.885-8.136,26.831c-0.415,1.373-0.158,1.694,1.3,1.702
		c3.354,0.016,6.707-0.013,10.06,0.016c0.938,0.009,1.378-0.385,1.621-1.277c0.911-3.35,1.917-6.675,2.807-10.029
		c0.28-1.058,0.786-1.46,1.877-1.451c4.772,0.04,9.544,0.045,14.316-0.002c1.098-0.013,1.598,0.385,1.88,1.438
		c0.905,3.353,1.917,6.675,2.849,10.021c0.259,0.929,0.741,1.344,1.739,1.308c1.673-0.062,3.352-0.017,5.029-0.017
		c1.546,0,3.095,0.002,4.643-0.002C239.583,91.948,239.761,91.729,239.187,89.84z M219.354,67.413
		c-0.002,0.011-0.009,0.02-0.013,0.028c-0.008,0.015-0.015,0.03-0.024,0.044c-0.083,0.143-0.219,0.243-0.416,0.31
		c-0.359,0.134-0.764,0.1-0.764,0.1c-2.491,0.045-4.984,0.042-7.476,0.002c-0.197-0.004-0.368-0.018-0.52-0.039
		c-1.375-0.052-0.732-1.554-0.732-1.554l4.954-20.978c0,0,3.427,14.55,4.636,19.712c0.102,0.409,0.203,0.816,0.304,1.226
		c0.048,0.188,0.08,0.355,0.099,0.506C219.464,67.049,219.435,67.254,219.354,67.413z"/>
	<path id="path34" fill="#1A2D4B" d="M172.576,56.224c-1.936-1.262-3.964-2.402-6.031-3.435c-3.107-1.551-6.32-2.884-9.419-4.447
		c-2.389-1.205-4.249-2.954-4.451-5.865c-0.212-3.042,1.175-5.32,3.613-6.96c3.887-2.613,9.635-1.382,12.143,2.553
		c0.481,0.756,0.897,1.563,1.252,2.387c0.397,0.922,0.921,1.097,1.811,0.633c2.927-1.527,5.867-3.033,8.824-4.501
		c0.852-0.424,1.001-0.966,0.612-1.763c-1.3-2.666-2.879-5.01-4.852-6.885c-0.02-0.022-0.401-0.417-1.116-0.975
		c-0.325-0.262-0.663-0.508-1.006-0.745h-0.027c-0.958-0.64-2.224-1.352-3.773-1.941c-0.008-0.003-0.016-0.006-0.024-0.009
		c-0.104-0.039-0.213-0.077-0.321-0.115c-0.146-0.053-0.294-0.104-0.447-0.154c-0.048-0.017-0.097-0.032-0.146-0.048
		c-0.146-0.047-0.294-0.093-0.447-0.138c-0.059-0.018-0.12-0.034-0.181-0.052c-0.143-0.041-0.288-0.081-0.435-0.12
		c-0.075-0.019-0.151-0.036-0.226-0.055c-0.139-0.034-0.277-0.068-0.418-0.1c-0.092-0.021-0.186-0.038-0.277-0.058
		c-0.131-0.027-0.26-0.055-0.394-0.079c-0.112-0.021-0.228-0.039-0.343-0.058c-0.117-0.02-0.234-0.041-0.354-0.059
		c-0.144-0.021-0.292-0.039-0.438-0.057c-0.096-0.013-0.189-0.026-0.286-0.036c-0.247-0.027-0.497-0.05-0.752-0.068
		c-0.001,0-0.002,0-0.004,0l0,0c-2.148-0.15-3.885-0.201-5.378-0.152c-0.001,0.001-0.003,0.001-0.004,0.001
		c-0.756,0.024-1.451,0.075-2.103,0.151c-0.007,0-0.012,0.001-0.017,0.002c-0.122,0.015-0.243,0.03-0.363,0.046
		c-0.009,0.002-0.02,0.003-0.031,0.004c-0.116,0.016-0.23,0.032-0.344,0.05c-0.011,0.003-0.021,0.004-0.034,0.006
		c-0.115,0.019-0.229,0.037-0.342,0.057c-0.008,0.001-0.015,0.003-0.023,0.004c-0.482,0.085-0.948,0.187-1.405,0.304
		c-0.027,0.007-0.053,0.014-0.082,0.021c-0.083,0.021-0.165,0.043-0.248,0.066c-0.039,0.01-0.077,0.021-0.116,0.032
		c-0.071,0.02-0.143,0.04-0.213,0.061c-0.044,0.013-0.088,0.025-0.132,0.039c-0.065,0.02-0.131,0.04-0.197,0.061
		c-0.047,0.015-0.094,0.029-0.14,0.044c-0.063,0.02-0.127,0.04-0.189,0.061c-0.381,0.125-0.767,0.261-1.159,0.408v-0.022
		c-0.551,0.2-1.084,0.417-1.595,0.657c-0.011,0.003-0.02,0.008-0.031,0.012c-0.108,0.045-0.201,0.092-0.289,0.139
		c-9.643,4.74-12.033,16.477-8.103,25.313c1.902,4.278,5.327,7.124,9.322,9.289c4.146,2.246,8.4,4.288,12.575,6.48
		c1.092,0.573,2.151,1.274,3.08,2.084c2.559,2.229,3.32,5.364,2.164,8.398c-0.12,0.317-0.264,0.619-0.42,0.912h0.004
		c0,0-0.744,1.997-3.401,3.289c-0.177,0.087-0.36,0.169-0.545,0.243l-0.001,0.001c-3.105,1.265-6.612,1.014-8.992,0.373h-0.001
		c-0.84-0.196-1.613-0.556-2.274-1.102c-0.669-0.521-0.94-0.987-0.94-0.987l-0.019-0.027c-0.329-0.411-0.639-0.84-0.935-1.278
		l-0.013-0.018h0.001c-0.559-0.828-1.075-1.689-1.596-2.54c-0.415-0.676-0.761-1.119-1.608-0.687
		c-3.052,1.564-6.113,3.114-9.173,4.661c-0.711,0.359-0.88,0.857-0.529,1.578c2.502,5.127,6.005,9.17,11.684,10.903
		c4.75,1.45,9.621,1.261,14.44,0.792c2.505-0.244,5.103-0.955,7.36-2.064c6-2.949,9.075-8.047,9.621-14.661
		C182.621,67.681,179.76,60.905,172.576,56.224"/>
</g>
<g id="hat">
	<path fill="#1A2D4B" d="M106.828,75.049c-0.188-6.193-18.257-11.196-40.522-11.196c-22.265,0-40.333,5.003-40.521,11.196H25.78
		v12.673c9.396,1.378,22.629,2.707,38.712,2.707c19.215,0,32.784-0.99,42.34-2.224V75.049H106.828z M44.182,76.334
		c-1.014,0.803-2.027,1.606-3.039,2.411c-0.231,0.184-0.227,0.187-0.145,0.469c0.277,0.978,0.551,1.957,0.827,2.938
		c0.091,0.324,0.185,0.649,0.276,0.978c0.008,0.028,0.01,0.062,0.023,0.122c-0.289-0.188-0.552-0.358-0.812-0.533
		c-0.563-0.373-1.128-0.751-1.693-1.126c-0.366-0.245-0.737-0.483-1.1-0.731c-0.099-0.07-0.173-0.068-0.27-0.003
		c-1.166,0.784-2.332,1.566-3.496,2.349c-0.027,0.019-0.058,0.027-0.113,0.053c0.069-0.256,0.134-0.487,0.198-0.719
		c0.201-0.729,0.405-1.456,0.608-2.182c0.123-0.438,0.242-0.879,0.368-1.315c0.023-0.079,0.013-0.12-0.053-0.174
		c-0.813-0.634-1.624-1.272-2.434-1.91c-0.328-0.258-0.651-0.518-1.014-0.801c0.086-0.015,0.127-0.023,0.17-0.026
		c0.977-0.043,1.957-0.082,2.936-0.12c0.431-0.017,0.864-0.033,1.293-0.056c0.044-0.004,0.104-0.048,0.119-0.086
		c0.404-1.088,0.805-2.18,1.205-3.267c0.088-0.245,0.176-0.483,0.267-0.722c0.015-0.043,0.034-0.081,0.063-0.148
		c0.137,0.362,0.266,0.692,0.388,1.026c0.187,0.502,0.373,1.008,0.559,1.512c0.19,0.512,0.385,1.023,0.57,1.537
		c0.039,0.106,0.086,0.15,0.204,0.153c1.373,0.044,2.747,0.095,4.116,0.144c0.064,0.005,0.125,0.016,0.219,0.026
		C44.327,76.212,44.256,76.274,44.182,76.334z M74.69,75.549c-1.361,1.078-2.72,2.157-4.08,3.238
		c-0.31,0.245-0.305,0.248-0.195,0.629c0.372,1.312,0.74,2.626,1.109,3.942c0.123,0.437,0.248,0.872,0.372,1.312
		c0.012,0.036,0.015,0.083,0.029,0.163c-0.385-0.252-0.74-0.479-1.089-0.714c-0.756-0.502-1.514-1.009-2.272-1.513
		c-0.49-0.328-0.989-0.648-1.477-0.983c-0.134-0.094-0.234-0.091-0.362-0.003c-1.565,1.052-3.13,2.104-4.694,3.154
		c-0.034,0.023-0.077,0.036-0.15,0.069c0.094-0.343,0.178-0.653,0.265-0.966c0.271-0.977,0.544-1.954,0.816-2.928
		c0.165-0.589,0.326-1.18,0.496-1.766c0.028-0.105,0.015-0.163-0.073-0.233c-1.092-0.85-2.18-1.707-3.267-2.565
		c-0.44-0.345-0.875-0.692-1.359-1.073c0.112-0.021,0.167-0.031,0.226-0.036c1.312-0.057,2.627-0.11,3.941-0.161
		c0.581-0.021,1.161-0.045,1.736-0.075c0.058-0.004,0.141-0.065,0.161-0.115c0.543-1.461,1.08-2.925,1.617-4.386
		c0.118-0.327,0.235-0.647,0.357-0.968c0.019-0.059,0.045-0.108,0.086-0.199c0.184,0.487,0.355,0.931,0.52,1.378
		c0.252,0.674,0.5,1.352,0.751,2.029c0.254,0.687,0.517,1.372,0.766,2.064c0.051,0.141,0.115,0.2,0.274,0.204
		c1.842,0.06,3.685,0.127,5.524,0.194c0.086,0.005,0.167,0.021,0.295,0.034C74.884,75.385,74.788,75.469,74.69,75.549z
		 M100.571,76.334c-1.014,0.803-2.026,1.606-3.039,2.411c-0.232,0.184-0.227,0.187-0.146,0.469c0.277,0.978,0.552,1.957,0.826,2.938
		c0.093,0.324,0.186,0.649,0.278,0.978c0.007,0.028,0.011,0.062,0.021,0.122c-0.287-0.188-0.55-0.358-0.812-0.533
		c-0.563-0.373-1.128-0.751-1.692-1.126c-0.366-0.245-0.737-0.483-1.1-0.731c-0.1-0.07-0.174-0.068-0.271-0.003
		c-1.166,0.784-2.33,1.566-3.495,2.349c-0.027,0.019-0.058,0.027-0.112,0.053c0.068-0.256,0.133-0.487,0.197-0.719
		c0.202-0.729,0.406-1.456,0.609-2.182c0.122-0.438,0.241-0.879,0.367-1.315c0.023-0.079,0.013-0.12-0.052-0.174
		c-0.813-0.634-1.625-1.272-2.433-1.91c-0.33-0.258-0.654-0.518-1.015-0.801c0.086-0.015,0.127-0.023,0.169-0.026
		c0.979-0.043,1.958-0.082,2.937-0.12c0.43-0.017,0.863-0.033,1.293-0.056c0.044-0.004,0.104-0.048,0.12-0.086
		c0.405-1.088,0.805-2.18,1.205-3.267c0.089-0.245,0.176-0.483,0.267-0.722c0.013-0.043,0.033-0.081,0.064-0.148
		c0.136,0.362,0.263,0.692,0.388,1.026c0.187,0.502,0.371,1.008,0.559,1.512c0.189,0.512,0.385,1.023,0.57,1.537
		c0.039,0.106,0.085,0.15,0.204,0.153c1.371,0.044,2.745,0.095,4.116,0.144c0.064,0.005,0.124,0.016,0.219,0.026
		C100.715,76.212,100.644,76.274,100.571,76.334z"/>
	<path fill="#CF1D2A" d="M37.451,62.362c2.217-0.618,4.642-1.156,7.228-1.61V1.991c-7.61,1.527-13.707,3.771-18.501,6.148v59.68
		h0.131C28.338,65.705,32.092,63.855,37.451,62.362 M66.704,59.013c2.788,0,5.534,0.076,8.208,0.228V0.246
		c-2.488-0.159-5.094-0.245-7.827-0.245c-3.789,0-7.343,0.164-10.676,0.463v58.912C59.733,59.136,63.186,59.013,66.704,59.013
		 M95.97,62.805c4.982,1.388,8.578,3.083,10.69,5.014h0.308V9.026C102.261,6.563,96.18,4.207,88.464,2.6v58.546
		C91.155,61.61,93.673,62.165,95.97,62.805"/>
	<path id="path28" fill="#1A2D4B" d="M0.004,87.599l0.083,6.941c1.92,0.367,4.012,0.744,6.278,1.122
		c12.375,2.058,32.486,4.511,58.025,4.511c35.402,0,56.329-2.475,68.59-4.816v-7.788l-0.013-0.005
		c-0.024-0.298-0.091-0.6-0.206-0.892c-0.636-1.631-2.473-2.436-4.103-1.8c-0.315,0.123-0.659,0.266-1.056,0.43
		c-4.955,2.045-20.034,8.271-62.929,8.271c-19.506,0-34.868-2.451-44.319-4.51c-10.248-2.23-15.952-4.491-16.009-4.515
		c-1.622-0.649-3.465,0.137-4.117,1.758c-0.125,0.311-0.196,0.626-0.22,0.943L0,87.26l0.002,0.217
		C0.002,87.518,0.002,87.558,0.004,87.599"/>
</g>
</svg>
