<?xml version="1.0" encoding="utf-8"?>
<!-- Generator: Adobe Illustrator 16.0.0, SVG Export Plug-In . SVG Version: 6.00 Build 0)  -->
<!DOCTYPE svg PUBLIC "-//W3C//DTD SVG 1.1//EN" "http://www.w3.org/Graphics/SVG/1.1/DTD/svg11.dtd">
<svg version="1.1" id="Layer_1" xmlns="http://www.w3.org/2000/svg" xmlns:xlink="http://www.w3.org/1999/xlink" x="0px" y="0px"
	 width="685.186px" height="79.557px" viewBox="0 0 685.186 79.557" enable-background="new 0 0 685.186 79.557"
	 xml:space="preserve">
<g>
	<path fill="#009EDD" d="M196.967,3.333h-22.251c-1.521,0-2.816,1.106-3.053,2.608l-8.998,57.054
		c-0.177,1.125,0.692,2.145,1.832,2.145h11.417c1.064,0,1.972-0.774,2.137-1.828l2.552-16.174c0.237-1.504,1.532-2.609,3.054-2.609
		h7.041c14.655,0,23.113-7.093,25.324-21.15c0.995-6.148,0.04-10.979-2.839-14.361C210.019,5.299,204.411,3.333,196.967,3.333z
		 M199.535,24.17c-1.216,7.987-7.315,7.987-13.216,7.987h-3.356l2.354-14.912c0.143-0.901,0.92-1.565,1.832-1.565h1.539
		c4.016,0,7.81,0,9.765,2.288C199.624,19.337,199.977,21.366,199.535,24.17z"/>
	<path fill="#1C3687" d="M38.271,3.333h-22.25c-1.521,0-2.816,1.106-3.054,2.608L3.969,62.996c-0.177,1.125,0.693,2.145,1.833,2.145
		h10.624c1.521,0,2.816-1.106,3.054-2.611l2.428-15.391c0.237-1.504,1.532-2.609,3.053-2.609h7.041
		c14.656,0,23.114-7.093,25.325-21.15c0.995-6.148,0.04-10.979-2.838-14.361C51.323,5.299,45.714,3.333,38.271,3.333z M40.838,24.17
		c-1.216,7.987-7.316,7.987-13.215,7.987h-3.357l2.354-14.912c0.143-0.901,0.919-1.565,1.832-1.565h1.539
		c4.016,0,7.81,0,9.765,2.288C40.927,19.337,41.281,21.366,40.838,24.17z"/>
	<path fill="#1C3687" d="M104.774,23.915H94.121c-0.913,0-1.69,0.664-1.833,1.565L91.82,28.46l-0.745-1.079
		c-2.308-3.35-7.45-4.468-12.585-4.468c-11.77,0-21.826,8.92-23.783,21.431c-1.019,6.24,0.427,12.205,3.966,16.367
		c3.251,3.826,7.891,5.418,13.419,5.418c9.487,0,14.75-6.096,14.75-6.096l-0.476,2.961c-0.179,1.127,0.691,2.146,1.832,2.146h9.595
		c1.521,0,2.815-1.106,3.053-2.608l5.76-36.474C106.784,24.933,105.914,23.915,104.774,23.915z M89.926,44.652
		C88.897,50.74,84.064,54.826,77.9,54.826c-3.09,0-5.564-0.994-7.154-2.875c-1.576-1.865-2.169-4.523-1.669-7.484
		c0.959-6.033,5.87-10.251,11.94-10.251c3.025,0,5.482,1.004,7.103,2.903C89.751,39.032,90.393,41.708,89.926,44.652z"/>
	<path fill="#009EDD" d="M263.47,23.915h-10.653c-0.913,0-1.69,0.664-1.832,1.565l-0.469,2.979l-0.745-1.079
		c-2.308-3.35-7.45-4.468-12.585-4.468c-11.771,0-21.826,8.92-23.782,21.431c-1.019,6.24,0.427,12.205,3.966,16.367
		c3.251,3.826,7.891,5.418,13.419,5.418c9.487,0,14.75-6.096,14.75-6.096l-0.476,2.961c-0.179,1.127,0.691,2.146,1.832,2.146h9.595
		c1.521,0,2.815-1.106,3.053-2.608l5.76-36.474C265.481,24.933,264.61,23.915,263.47,23.915z M248.623,44.652
		c-1.029,6.089-5.861,10.175-12.025,10.175c-3.091,0-5.564-0.994-7.155-2.875c-1.575-1.865-2.169-4.523-1.669-7.484
		c0.96-6.033,5.869-10.251,11.939-10.251c3.025,0,5.482,1.004,7.104,2.903C248.448,39.032,249.089,41.708,248.623,44.652z"/>
	<path fill="#1C3687" d="M161.52,23.915h-10.709c-1.024,0-1.982,0.508-2.558,1.354l-14.772,21.757L127.22,26.12
		c-0.392-1.31-1.596-2.206-2.961-2.206h-10.527c-1.271,0-2.165,1.25-1.756,2.454l11.792,34.611l-11.091,15.65
		c-0.871,1.229,0.008,2.926,1.514,2.926h10.698c1.014,0,1.963-0.496,2.541-1.33l35.614-51.398
		C163.896,25.597,163.016,23.915,161.52,23.915z"/>
	<path fill="#009EDD" d="M276.029,4.9l-9.133,58.097c-0.177,1.127,0.693,2.145,1.832,2.145h9.185c1.521,0,2.816-1.106,3.054-2.608
		l9.004-57.055c0.178-1.126-0.692-2.144-1.832-2.144h-10.277C276.948,3.333,276.17,3.998,276.029,4.9z"/>
</g>
<g>
	<path fill="#99999A" d="M326.233,43.975c0.906-2.976,2.219-5.841,3.936-8.593c1.715-2.752,3.773-5.188,6.173-7.308
		s5.099-3.812,8.093-5.076c2.992-1.264,6.226-1.896,9.689-1.896s6.309,0.633,8.535,1.896c2.223,1.264,3.887,2.957,4.994,5.076
		c1.104,2.12,1.678,4.556,1.715,7.308s-0.398,5.617-1.306,8.593c-0.907,2.978-2.221,5.84-3.938,8.592
		c-1.715,2.752-3.773,5.188-6.174,7.31c-2.398,2.119-5.099,3.812-8.09,5.074c-2.996,1.264-6.228,1.896-9.692,1.896
		s-6.311-0.633-8.533-1.896c-2.225-1.263-3.89-2.955-4.996-5.074c-1.104-2.121-1.678-4.558-1.715-7.31
		S325.325,46.951,326.233,43.975z M332.042,43.975c-0.671,2.201-1.049,4.371-1.129,6.512c-0.083,2.142,0.227,4.066,0.927,5.779
		s1.852,3.088,3.45,4.129c1.599,1.039,3.723,1.56,6.374,1.56c2.65,0,5.091-0.521,7.326-1.56c2.231-1.041,4.223-2.416,5.967-4.129
		c1.746-1.713,3.23-3.639,4.455-5.779c1.223-2.141,2.17-4.311,2.842-6.512c0.672-2.203,1.049-4.374,1.131-6.514
		c0.082-2.141-0.229-4.066-0.928-5.779c-0.701-1.712-1.852-3.088-3.449-4.128c-1.602-1.04-3.725-1.559-6.375-1.559
		c-2.649,0-5.092,0.52-7.324,1.559c-2.234,1.04-4.224,2.416-5.969,4.128s-3.229,3.638-4.453,5.779
		C333.661,39.601,332.713,41.772,332.042,43.975z"/>
	<path fill="#99999A" d="M377.468,34.189h5.199l-1.307,4.28h0.123c1.391-1.752,3.122-3.026,5.2-3.821
		c2.078-0.796,4.218-1.192,6.418-1.192c2.447,0,4.439,0.448,5.98,1.346s2.68,2.11,3.416,3.639c0.736,1.529,1.104,3.293,1.106,5.29
		c0.003,1.998-0.338,4.119-1.021,6.361c-0.686,2.242-1.627,4.363-2.828,6.359c-1.201,1.998-2.629,3.739-4.285,5.229
		s-3.524,2.672-5.606,3.547c-2.082,0.877-4.326,1.314-6.73,1.314c-0.815,0-1.668-0.082-2.555-0.244
		c-0.89-0.162-1.742-0.438-2.562-0.824c-0.819-0.389-1.553-0.896-2.194-1.529c-0.643-0.633-1.107-1.416-1.392-2.354h-0.123
		l-4.979,16.328h-5.197L377.468,34.189z M397.192,49.723c0.446-1.469,0.69-2.904,0.733-4.312c0.041-1.406-0.168-2.66-0.627-3.761
		s-1.211-1.978-2.256-2.63c-1.045-0.65-2.402-0.979-4.074-0.979c-1.752,0-3.348,0.347-4.781,1.04
		c-1.436,0.692-2.711,1.601-3.825,2.721c-1.117,1.122-2.066,2.396-2.849,3.823s-1.396,2.875-1.844,4.342
		c-0.473,1.551-0.746,3.049-0.822,4.494c-0.073,1.449,0.119,2.723,0.578,3.822c0.459,1.102,1.217,1.987,2.277,2.659
		c1.057,0.675,2.484,1.011,4.277,1.011c1.754,0,3.348-0.347,4.782-1.039c1.435-0.693,2.691-1.611,3.773-2.752
		c1.082-1.142,2.01-2.447,2.785-3.914C396.097,52.779,396.72,51.271,397.192,49.723z"/>
	<path fill="#99999A" d="M433.995,55.777c-1.764,3.507-4.111,6.177-7.039,8.011c-2.93,1.836-6.193,2.752-9.789,2.752
		c-2.533,0-4.602-0.418-6.205-1.252c-1.604-0.836-2.813-1.988-3.635-3.457c-0.818-1.468-1.234-3.22-1.246-5.259
		c-0.012-2.038,0.309-4.26,0.961-6.665c0.721-2.365,1.758-4.558,3.107-6.574c1.35-2.02,2.909-3.762,4.684-5.229
		c1.771-1.468,3.688-2.608,5.752-3.425s4.176-1.224,6.336-1.224c2.814,0,4.971,0.581,6.471,1.742c1.5,1.162,2.537,2.642,3.113,4.435
		c0.572,1.795,0.75,3.751,0.531,5.871c-0.217,2.121-0.66,4.139-1.326,6.055h-23.666c-0.465,1.387-0.701,2.701-0.715,3.945
		c-0.012,1.244,0.242,2.344,0.768,3.303c0.521,0.957,1.328,1.723,2.418,2.293c1.091,0.57,2.49,0.855,4.203,0.855
		c2.16,0,4.109-0.511,5.851-1.529c1.735-1.018,3.146-2.568,4.229-4.646L433.995,55.777L433.995,55.777z M431.606,46.971
		c0.288-1.223,0.368-2.385,0.235-3.486c-0.133-1.101-0.477-2.048-1.026-2.843c-0.554-0.796-1.31-1.427-2.267-1.896
		c-0.959-0.469-2.07-0.703-3.332-0.703c-1.346,0-2.633,0.234-3.854,0.703c-1.226,0.47-2.349,1.11-3.371,1.927
		c-1.023,0.816-1.924,1.764-2.701,2.844c-0.779,1.08-1.395,2.232-1.85,3.455L431.606,46.971L431.606,46.971z"/>
	<path fill="#99999A" d="M446.39,34.189h4.894l-1.529,5.016h0.121c1.697-1.957,3.555-3.403,5.574-4.343
		c2.02-0.938,4.17-1.406,6.453-1.406c2.08,0,3.725,0.286,4.938,0.855c1.211,0.571,2.09,1.366,2.637,2.385
		c0.546,1.021,0.775,2.232,0.693,3.64c-0.084,1.407-0.385,2.966-0.906,4.679l-6.342,20.793h-5.199l6.529-21.404
		c0.596-1.957,0.496-3.506-0.295-4.647c-0.795-1.143-2.189-1.713-4.188-1.713c-1.59,0-3.041,0.245-4.352,0.733
		c-1.311,0.489-2.492,1.184-3.539,2.079c-1.049,0.897-1.949,1.948-2.703,3.149c-0.756,1.203-1.35,2.518-1.785,3.945l-5.444,17.856
		h-5.199L446.39,34.189z"/>
	<path fill="#99999A" d="M523.282,34.922c0.629-3.139,0.19-5.412-1.314-6.818c-1.508-1.407-3.77-2.109-6.787-2.109
		c-1.223,0-2.463,0.122-3.721,0.366c-1.256,0.245-2.432,0.653-3.521,1.224c-1.093,0.57-2.06,1.336-2.902,2.293
		c-0.842,0.958-1.48,2.15-1.916,3.577c-0.41,1.346-0.346,2.438,0.193,3.271c0.54,0.836,1.393,1.521,2.557,2.049
		c1.162,0.53,2.527,0.97,4.094,1.314c1.566,0.347,3.162,0.725,4.791,1.132s3.195,0.887,4.699,1.437
		c1.504,0.551,2.764,1.295,3.783,2.231c1.018,0.939,1.705,2.131,2.059,3.578c0.354,1.447,0.207,3.232-0.438,5.352
		c-0.709,2.324-1.837,4.312-3.38,5.964c-1.543,1.649-3.289,2.995-5.235,4.034c-1.947,1.039-4.006,1.806-6.174,2.293
		c-2.166,0.49-4.25,0.734-6.246,0.734c-2.447,0-4.668-0.307-6.662-0.918c-1.996-0.611-3.625-1.549-4.892-2.812
		c-1.266-1.264-2.082-2.863-2.448-4.802c-0.369-1.936-0.148-4.229,0.659-6.879h5.505c-0.56,1.834-0.685,3.414-0.375,4.738
		c0.309,1.326,0.916,2.416,1.815,3.271c0.9,0.857,2.053,1.49,3.457,1.896c1.404,0.408,2.941,0.611,4.615,0.611
		c1.303,0,2.656-0.123,4.057-0.367c1.398-0.244,2.717-0.662,3.959-1.254c1.24-0.59,2.342-1.396,3.308-2.414
		c0.961-1.021,1.688-2.324,2.172-3.914c0.459-1.508,0.434-2.732-0.074-3.67c-0.51-0.938-1.326-1.701-2.449-2.293
		c-1.125-0.593-2.465-1.08-4.018-1.47c-1.556-0.387-3.15-0.764-4.793-1.131c-1.642-0.367-3.219-0.805-4.734-1.313
		c-1.518-0.511-2.807-1.193-3.871-2.049c-1.063-0.855-1.793-1.937-2.19-3.241c-0.396-1.305-0.291-2.955,0.319-4.953
		c0.67-2.202,1.701-4.107,3.088-5.718c1.39-1.61,2.984-2.937,4.791-3.976c1.806-1.04,3.732-1.812,5.785-2.324
		c2.052-0.509,4.074-0.765,6.072-0.765c2.242,0,4.24,0.267,5.996,0.795c1.754,0.53,3.17,1.367,4.25,2.507
		c1.078,1.143,1.781,2.579,2.108,4.312c0.326,1.732,0.164,3.802-0.485,6.207h-5.506V34.922z"/>
	<path fill="#99999A" d="M530.479,50.027c0.709-2.321,1.696-4.493,2.965-6.512c1.268-2.019,2.78-3.771,4.539-5.26
		c1.76-1.487,3.717-2.66,5.873-3.518c2.157-0.854,4.5-1.283,7.026-1.283c2.486,0,4.56,0.429,6.213,1.283
		c1.656,0.856,2.908,2.029,3.761,3.518c0.85,1.489,1.295,3.241,1.33,5.26c0.036,2.019-0.3,4.189-1.009,6.512
		c-0.709,2.324-1.692,4.486-2.955,6.482c-1.262,1.998-2.771,3.742-4.53,5.23c-1.759,1.487-3.728,2.659-5.902,3.516
		c-2.18,0.854-4.512,1.283-6.998,1.283c-2.527,0-4.607-0.429-6.242-1.283c-1.635-0.855-2.879-2.027-3.729-3.516
		c-0.853-1.488-1.299-3.232-1.342-5.23C529.435,54.514,529.769,52.352,530.479,50.027z M535.981,50.027
		c-0.584,1.918-0.851,3.619-0.794,5.107c0.056,1.488,0.38,2.732,0.974,3.73c0.59,1,1.408,1.764,2.449,2.293
		c1.041,0.53,2.233,0.795,3.58,0.795c1.346,0,2.698-0.265,4.063-0.795c1.363-0.529,2.646-1.293,3.85-2.293
		c1.199-0.998,2.283-2.242,3.246-3.73s1.738-3.189,2.322-5.107c0.584-1.916,0.85-3.616,0.793-5.104s-0.377-2.742-0.961-3.761
		c-0.588-1.02-1.4-1.794-2.44-2.324c-1.041-0.529-2.234-0.795-3.58-0.795c-1.347,0-2.701,0.266-4.064,0.795
		c-1.365,0.53-2.65,1.306-3.856,2.324c-1.209,1.019-2.296,2.272-3.259,3.761C537.339,46.41,536.565,48.111,535.981,50.027z"/>
	<path fill="#99999A" d="M588.655,65.807h-4.894l1.529-5.016h-0.123c-1.697,1.957-3.557,3.403-5.574,4.342
		c-2.02,0.938-4.172,1.406-6.453,1.406c-2.08,0-3.725-0.285-4.938-0.855c-1.213-0.569-2.092-1.365-2.635-2.385
		c-0.547-1.021-0.779-2.232-0.695-3.639c0.082-1.406,0.385-2.968,0.906-4.679l6.344-20.793h5.197l-6.527,21.405
		c-0.598,1.957-0.5,3.506,0.293,4.646c0.793,1.143,2.189,1.713,4.188,1.713c1.59,0,3.039-0.244,4.352-0.734
		c1.312-0.488,2.49-1.182,3.539-2.078c1.049-0.896,1.949-1.947,2.703-3.149c0.754-1.201,1.35-2.517,1.785-3.943L593.1,34.19h5.197
		L588.655,65.807z"/>
	<path fill="#99999A" d="M605.942,34.189h4.893l-2.033,6.666h0.121c2.047-2.567,4.176-4.465,6.383-5.688
		c2.209-1.225,4.707-1.794,7.494-1.713l-1.68,5.504c-2.078,0-3.939,0.286-5.58,0.855c-1.644,0.571-3.08,1.407-4.312,2.507
		c-1.231,1.103-2.297,2.447-3.188,4.037c-0.896,1.591-1.646,3.386-2.254,5.382l-4.289,14.065h-5.199L605.942,34.189z"/>
	<path fill="#99999A" d="M643.759,44.34c0.201-1.996-0.192-3.546-1.182-4.647c-0.989-1.101-2.564-1.65-4.726-1.65
		c-1.875,0-3.553,0.347-5.024,1.04c-1.478,0.692-2.767,1.609-3.867,2.752c-1.104,1.141-2.045,2.456-2.824,3.943
		c-0.78,1.488-1.412,3.027-1.896,4.617c-0.447,1.47-0.711,2.896-0.787,4.281c-0.076,1.387,0.088,2.621,0.492,3.699
		c0.403,1.082,1.088,1.946,2.051,2.6s2.279,0.979,3.953,0.979c2.526,0,4.731-0.683,6.617-2.05c1.885-1.364,3.354-3.25,4.416-5.655
		h5.319c-1.752,3.873-4.141,6.891-7.164,9.051c-3.022,2.162-6.532,3.24-10.528,3.24c-2.406,0-4.414-0.396-6.025-1.191
		c-1.613-0.795-2.824-1.906-3.631-3.334c-0.809-1.426-1.229-3.127-1.256-5.104c-0.031-1.978,0.315-4.148,1.037-6.515
		c0.723-2.362,1.703-4.576,2.942-6.635c1.238-2.058,2.713-3.853,4.425-5.381c1.709-1.529,3.625-2.731,5.747-3.608
		c2.123-0.877,4.445-1.314,6.976-1.314c1.793,0,3.41,0.215,4.85,0.643c1.44,0.428,2.633,1.091,3.584,1.987
		c0.949,0.896,1.592,2.028,1.93,3.395c0.339,1.367,0.322,2.986-0.047,4.861h-5.382V44.34z"/>
	<path fill="#99999A" d="M678.675,55.777c-1.764,3.507-4.108,6.177-7.039,8.011c-2.93,1.836-6.192,2.752-9.787,2.752
		c-2.534,0-4.602-0.418-6.205-1.252c-1.604-0.836-2.815-1.988-3.635-3.457c-0.819-1.468-1.233-3.22-1.246-5.259
		c-0.012-2.038,0.31-4.26,0.961-6.665c0.722-2.365,1.757-4.558,3.105-6.574c1.35-2.02,2.91-3.762,4.684-5.229
		c1.771-1.468,3.691-2.608,5.754-3.425c2.063-0.816,4.175-1.224,6.337-1.224c2.812,0,4.969,0.581,6.471,1.742
		c1.5,1.162,2.537,2.642,3.111,4.435c0.573,1.795,0.752,3.751,0.532,5.871c-0.219,2.121-0.659,4.139-1.325,6.055h-23.668
		c-0.466,1.387-0.701,2.701-0.716,3.945c-0.012,1.244,0.244,2.344,0.769,3.303c0.521,0.957,1.33,1.723,2.418,2.293
		c1.09,0.57,2.492,0.855,4.205,0.855c2.16,0,4.108-0.511,5.848-1.529c1.738-1.018,3.146-2.568,4.23-4.646L678.675,55.777
		L678.675,55.777z M676.286,46.971c0.291-1.223,0.371-2.385,0.238-3.486c-0.134-1.101-0.478-2.048-1.029-2.843
		c-0.553-0.796-1.31-1.427-2.267-1.896c-0.956-0.469-2.067-0.703-3.331-0.703c-1.347,0-2.632,0.234-3.854,0.703
		c-1.225,0.47-2.348,1.11-3.371,1.927c-1.022,0.816-1.924,1.764-2.701,2.844c-0.778,1.08-1.395,2.232-1.848,3.455L676.286,46.971
		L676.286,46.971z"/>
</g>
</svg>
