<?xml version="1.0" encoding="UTF-8"?>
<svg width="470px" height="101px" viewBox="0 0 470 101" version="1.1" xmlns="http://www.w3.org/2000/svg" xmlns:xlink="http://www.w3.org/1999/xlink">
    <!-- Generator: Sketch 57.1 (83088) - https://sketch.com -->
    <title>logo-sam</title>
    <desc>Created with Sketch.</desc>
    <g id="Page-1" stroke="none" stroke-width="1" fill="none" fill-rule="evenodd">
        <g id="logo-sam" fill-rule="nonzero">
            <g id="GOV" transform="translate(335.000000, 39.000000)" fill="#1A2D4B">
                <path d="M22.646,0.463 C23.556,0.572 24.47,0.636 25.369,0.799 C31.148,1.846 35.242,5.145 37.961,10.269 C39.186,12.577 39.979,15.035 40.559,17.572 C40.575,17.643 40.561,17.721 40.561,17.816 C38.907,17.816 37.26,17.816 35.579,17.816 C35.409,17.169 35.249,16.511 35.063,15.862 C34.465,13.789 33.624,11.832 32.34,10.079 C30.5,7.561 28.057,5.964 25.008,5.331 C21.862,4.679 18.75,4.869 15.742,5.999 C13.355,6.895 11.439,8.46 9.957,10.536 C7.908,13.41 6.898,16.686 6.322,20.116 C5.593,24.437 5.554,28.785 5.951,33.137 C6.242,36.306 6.873,39.402 8.166,42.332 C9.42,45.175 11.242,47.548 13.955,49.14 C15.426,50.004 17.031,50.534 18.725,50.781 C21.438,51.177 24.121,51.093 26.735,50.19 C29.032,49.397 30.903,48.002 32.362,46.065 C34.303,43.487 35.344,40.52 35.878,37.386 C36.243,35.262 36.396,33.103 36.636,30.957 C36.661,30.744 36.64,30.525 36.64,30.253 C31.632,30.253 26.634,30.253 21.611,30.253 C21.611,28.738 21.611,27.282 21.611,25.788 C28.299,25.788 34.978,25.788 41.724,25.788 C41.744,26.146 41.783,26.512 41.79,26.879 C41.849,30.84 41.575,34.775 40.673,38.642 C39.81,42.335 38.443,45.816 36.085,48.837 C33.214,52.518 29.431,54.637 24.815,55.277 C23.942,55.4 23.061,55.463 22.182,55.552 C21.778,55.552 21.371,55.552 20.967,55.552 C20.059,55.459 19.147,55.399 18.242,55.272 C13.281,54.579 9.248,52.264 6.222,48.259 C4.105,45.456 2.783,42.272 1.919,38.889 C1.179,35.99 0.806,33.035 0.7,30.045 C0.682,29.521 0.641,28.997 0.612,28.474 C0.612,28.194 0.612,27.914 0.612,27.634 C0.633,27.45 0.663,27.267 0.678,27.083 C0.84,25.071 0.916,23.048 1.178,21.049 C1.739,16.74 3.01,12.656 5.385,8.972 C8.385,4.321 12.621,1.56 18.102,0.733 C18.776,0.632 19.452,0.552 20.125,0.462 C20.966,0.463 21.806,0.463 22.646,0.463" id="path38"></path>
                <path d="M85.281,27.869 C85.248,25.349 85.113,22.65 84.638,19.975 C84.056,16.675 83.095,13.518 81.167,10.721 C79.286,7.995 76.737,6.196 73.524,5.443 C70.368,4.704 67.202,4.78 64.102,5.838 C61.504,6.725 59.434,8.332 57.846,10.557 C55.543,13.783 54.573,17.489 54.026,21.335 C53.61,24.27 53.553,27.226 53.649,30.183 C53.729,32.611 53.977,35.022 54.499,37.397 C55.103,40.16 56.017,42.8 57.636,45.159 C59.661,48.106 62.415,49.953 65.917,50.648 C68.751,51.212 71.573,51.143 74.356,50.311 C76.489,49.674 78.325,48.541 79.844,46.926 C82.053,44.58 83.287,41.718 84.088,38.642 C84.994,35.171 85.244,31.627 85.281,27.869 L85.281,27.869 Z M68.865,55.552 C67.957,55.459 67.045,55.397 66.14,55.271 C61.443,54.615 57.546,52.5 54.55,48.803 C52.343,46.08 50.948,42.95 50.013,39.596 C49.275,36.951 48.867,34.255 48.683,31.519 C48.474,28.423 48.519,25.331 48.888,22.252 C49.368,18.247 50.333,14.378 52.224,10.781 C54.624,6.21 58.132,2.89 63.15,1.388 C64.58,0.96 66.099,0.822 67.578,0.55 C67.728,0.523 67.877,0.491 68.025,0.461 C68.99,0.461 69.957,0.461 70.92,0.461 C71.795,0.582 72.676,0.67 73.541,0.83 C78.908,1.819 82.973,4.693 85.83,9.328 C87.697,12.356 88.816,15.656 89.5,19.122 C90.154,22.431 90.379,25.774 90.311,29.142 C90.243,32.336 89.907,35.499 89.135,38.604 C88.196,42.398 86.709,45.942 84.197,48.986 C81.515,52.235 78.088,54.266 73.957,55.07 C72.803,55.294 71.617,55.352 70.445,55.489 C70.322,55.503 70.201,55.529 70.08,55.551 C69.675,55.552 69.271,55.552 68.865,55.552 L68.865,55.552 Z" id="path40"></path>
                <path d="M135.031,1.659 C134.621,2.866 134.238,3.994 133.853,5.122 C128.32,21.382 122.785,37.643 117.259,53.907 C117.144,54.249 116.999,54.353 116.646,54.346 C115.277,54.324 113.906,54.323 112.537,54.3473132 C112.164,54.354 112.014,54.245 111.891,53.885 C107.987,42.43 104.069,30.979 100.151,19.527 C98.163,13.714 96.176,7.899 94.188,2.085 C94.151,1.97 94.122,1.851 94.075,1.696 C94.216,1.682 94.331,1.66 94.446,1.66 C95.94,1.658 97.434,1.67 98.928,1.65 C99.252,1.64534496 99.383,1.754 99.483,2.052 C104.43,16.823 109.385,31.592 114.342,46.362 C114.395,46.518 114.453,46.674 114.629,46.84 C114.686,46.697 114.75,46.557 114.799,46.409 C119.715,31.693 124.633,16.977 129.531,2.254 C129.685,1.785 129.871,1.634 130.361,1.646 C131.884,1.681 133.408,1.659 135.031,1.659" id="path42"></path>
            </g>
            <path d="M307.835,84.236 C307.997,84.207 308.077,84.19 308.161,84.185 C310.052,84.102 311.946,84.026 313.839,83.954 C314.675,83.921 315.511,83.889 316.339,83.845 C316.423,83.839 316.542,83.752 316.573,83.679 C317.356,81.574 318.128,79.464 318.903,77.361 C319.073,76.887 319.241,76.426 319.415,75.965 C319.444,75.882 319.481,75.81 319.54,75.679 C319.806,76.38 320.052,77.02 320.29,77.664 C320.653,78.636 321.011,79.612 321.372,80.588 C321.737,81.577 322.116,82.567 322.474,83.563 C322.548,83.765 322.64,83.851 322.869,83.857 C325.523,83.943 328.18,84.042 330.83,84.136 C330.953,84.144 331.07,84.167 331.254,84.187 C331.07,84.341 330.932,84.461 330.791,84.578 C328.83,86.131 326.871,87.685 324.912,89.242 C324.465,89.596 324.473,89.601 324.631,90.148 C325.168,92.04 325.697,93.933 326.231,95.831 C326.407,96.458 326.586,97.086 326.764,97.723 C326.784,97.775 326.787,97.841 326.807,97.956 C326.252,97.594 325.743,97.264 325.239,96.927 C324.147,96.203 323.057,95.474 321.964,94.748 C321.257,94.274 320.538,93.813 319.837,93.332 C319.644,93.195 319.501,93.2 319.314,93.326 C317.06,94.842 314.804,96.357 312.55,97.871 C312.503,97.906 312.439,97.923 312.335,97.972 C312.47,97.478 312.593,97.03 312.716,96.581 C313.107,95.175 313.501,93.766 313.894,92.362 C314.13,91.513 314.363,90.662 314.605,89.817 C314.648,89.667 314.63,89.583 314.503,89.482 C312.929,88.254 311.362,87.021 309.796,85.786 C309.16,85.287 308.533,84.785 307.835,84.236" id="star" fill="#CF1D2A"></path>
            <g id="SAM" transform="translate(138.000000, 22.000000)" fill="#1A2D4B">
                <path d="M152.849,31.433 C152.334,33.005 151.923,34.62 151.287,36.139 C148.626,42.502 145.898,48.839 143.185,55.182 C142.545,56.68 141.843,58.151 141.213,59.652 C140.907,60.383 140.454,60.71 139.644,60.686 C138.097,60.641 136.541,60.76 135.007,60.627 C134.452,60.579 133.671,60.126 133.452,59.648 C130.498,53.173 127.557,46.69 124.763,40.146 C123.74,37.751 123.105,35.19 122.288,32.708 C122.155,32.31 121.999,31.919 121.854,31.524 C121.746,31.529 121.636,31.536 121.528,31.541 C121.528,32 121.494,32.462 121.534,32.917 C122.571,44.492 122.639,56.094 122.57,67.7 C122.556,69.953 122.567,69.953 120.255,69.953 C117.462,69.953 114.666,69.912 111.873,69.971 C110.663,69.997 110.177,69.583 110.178994,68.339 C110.199,46.803 110.197,25.267 110.18,3.73 C110.18,2.557 110.524,1.996 111.801,2.027 C114.465,2.09 117.132,2.069 119.797,2.033 C120.683,2.02 121.188,2.298 121.549,3.165 C126.224,14.406 130.952,25.624 135.616,36.87 C136.263,38.432 136.632,40.112 137.214,42.017 C137.396,41.478 137.482,41.183 137.591,40.899 C139.642,35.675 141.633,30.428 143.765,25.239 C146.779,17.904 149.908,10.617 152.953,3.295 C153.312,2.431 153.751,2.006 154.742,2.02532577 C157.406,2.084 160.072,2.088 162.736,2.027 C163.994,1.999 164.355,2.506 164.353008,3.712 C164.328,25.206 164.335,46.699 164.334,68.193 C164.333,69.803 164.183,69.949 162.546,69.952 C159.579,69.957 156.614,69.921 153.648,69.971 C152.5,69.989 151.968,69.57 152.002,68.406 C152.301,57.669 152.583,46.932 152.895,36.195 C152.94,34.628 153.101,33.064 153.207,31.499 C153.087,31.477 152.966,31.455 152.849,31.433" id="path30"></path>
                <path d="M101.187,67.84 C97.259,54.92 93.319,42.003 89.381,29.086 C86.768,20.515 84.135,11.949 81.56,3.367 C81.257,2.355 80.776,1.997 79.743,2.027 C77.552,2.089 75.356,2.1 73.166,2.024 C72.015,1.983 71.519,2.421 71.19,3.514 C67.375,16.156 63.508,28.782 59.663,41.414 C56.942,50.354 54.228,59.299 51.527,68.245 C51.112,69.618 51.369,69.939 52.827,69.947 C56.181,69.963 59.534,69.934 62.887,69.963 C63.825,69.972 64.265,69.578 64.508,68.686 C65.419,65.336 66.425,62.011 67.315,58.657 C67.595,57.599 68.101,57.197 69.192,57.206 C73.964,57.246 78.736,57.251 83.508,57.204 C84.606,57.191 85.106,57.589 85.388,58.642 C86.293,61.995 87.305,65.317 88.237,68.663 C88.496,69.592 88.978,70.007 89.976,69.971 C91.649,69.909 93.328,69.954 95.005,69.954 C96.551,69.954 98.1,69.956 99.648,69.952 C101.583,69.948 101.761,69.729 101.187,67.84 Z M81.354,45.413 C81.352,45.424 81.345,45.433 81.341,45.441 C81.333,45.456 81.326,45.471 81.317,45.485 C81.234,45.628 81.098,45.728 80.901,45.795 C80.542,45.929 80.137,45.895 80.137,45.895 C77.646,45.94 75.153,45.937 72.661,45.897 C72.464,45.893 72.293,45.879 72.141,45.858 C70.766,45.806 71.409,44.304 71.409,44.304 L76.363,23.326 C76.363,23.326 79.79,37.876 80.999,43.038 C81.101,43.447 81.202,43.854 81.303,44.264 C81.351,44.452 81.383,44.619 81.402,44.77 C81.464,45.049 81.435,45.254 81.354,45.413 Z" id="Shape"></path>
                <path d="M34.576,34.224 C32.64,32.962 30.612,31.822 28.545,30.789 C25.438,29.238 22.225,27.905 19.126,26.342 C16.737,25.137 14.877,23.388 14.675,20.477 C14.463,17.435 15.85,15.157 18.288,13.517 C22.175,10.904 27.923,12.135 30.431,16.07 C30.912,16.826 31.328,17.633 31.683,18.457 C32.08,19.379 32.604,19.554 33.494,19.09 C36.421,17.563 39.361,16.057 42.318,14.589 C43.17,14.165 43.319,13.623 42.93,12.826 C41.63,10.16 40.051,7.816 38.078,5.941 C38.058,5.919 37.677,5.524 36.962,4.966 C36.637,4.704 36.299,4.458 35.956,4.221 L35.929,4.221 C34.971,3.581 33.705,2.869 32.156,2.28 C32.148,2.277 32.14,2.274 32.132,2.271 C32.028,2.232 31.919,2.194 31.811,2.156 C31.665,2.103 31.517,2.052 31.364,2.002 C31.316,1.985 31.267,1.97 31.218,1.954 C31.072,1.907 30.924,1.861 30.771,1.816 C30.712,1.798 30.651,1.782 30.59,1.764 C30.447,1.723 30.302,1.683 30.155,1.644 C30.08,1.625 30.004,1.608 29.929,1.589 C29.79,1.555 29.652,1.521 29.511,1.489 C29.419,1.468 29.325,1.451 29.234,1.431 C29.103,1.404 28.974,1.376 28.84,1.352 C28.728,1.331 28.612,1.313 28.497,1.294 C28.38,1.274 28.263,1.253 28.143,1.235 C27.999,1.214 27.851,1.196 27.705,1.178 C27.609,1.165 27.516,1.152 27.419,1.142 C27.172,1.115 26.922,1.092 26.667,1.074 C26.666,1.074 26.665,1.074 26.663,1.074 L26.663,1.074 C24.515,0.924 22.778,0.873 21.285,0.922 C21.284,0.923 21.282,0.923 21.281,0.923 C20.525,0.947 19.83,0.998 19.178,1.074 C19.171,1.074 19.166,1.075 19.161,1.076 C19.039,1.091 18.918,1.106 18.798,1.122 C18.789,1.124 18.778,1.125 18.767,1.126 C18.651,1.142 18.537,1.158 18.423,1.176 C18.412,1.179 18.402,1.18 18.389,1.182 C18.274,1.201 18.16,1.219 18.047,1.239 C18.039,1.24 18.032,1.242 18.024,1.243 C17.542,1.328 17.076,1.43 16.619,1.547 C16.592,1.554 16.566,1.561 16.537,1.568 C16.454,1.589 16.372,1.611 16.289,1.634 C16.25,1.644 16.212,1.655 16.173,1.666 C16.102,1.686 16.03,1.706 15.96,1.727 C15.916,1.74 15.872,1.752 15.828,1.766 C15.763,1.786 15.697,1.806 15.631,1.827 C15.584,1.842 15.537,1.856 15.491,1.871 C15.428,1.891 15.364,1.911 15.302,1.932 C14.921,2.057 14.535,2.193 14.143,2.34 L14.143,2.318 C13.592,2.518 13.059,2.735 12.548,2.975 C12.537,2.978 12.528,2.983 12.517,2.987 C12.409,3.032 12.316,3.079 12.228,3.126 C2.585,7.866 0.195,19.603 4.125,28.439 C6.027,32.717 9.452,35.563 13.447,37.728 C17.593,39.974 21.847,42.016 26.022,44.208 C27.114,44.781 28.173,45.482 29.102,46.292 C31.661,48.521 32.422,51.656 31.266,54.69 C31.146,55.007 31.002,55.309 30.846,55.602 L30.85,55.602 C30.85,55.602 30.106,57.599 27.449,58.891 C27.272,58.978 27.089,59.06 26.904,59.134 L26.903,59.135 C23.798,60.4 20.291,60.149 17.911,59.508 L17.91,59.508 C17.07,59.312 16.297,58.952 15.636,58.406 C14.967,57.885 14.696,57.419 14.696,57.419 L14.677,57.392 C14.348,56.981 14.038,56.552 13.742,56.114 L13.729,56.096 L13.73,56.096 C13.171,55.268 12.655,54.407 12.134,53.556 C11.719,52.88 11.373,52.437 10.526,52.869 C7.474,54.433 4.413,55.983 1.353,57.53 C0.642,57.889 0.473,58.387 0.824,59.108 C3.326,64.235 6.829,68.278 12.508,70.011 C17.258,71.461 22.129,71.272 26.948,70.803 C29.453,70.559 32.051,69.848 34.308,68.739 C40.308,65.79 43.383,60.692 43.929,54.078 C44.621,45.681 41.76,38.905 34.576,34.224" id="path34"></path>
            </g>
            <g id="hat">
                <path d="M106.828,75.049 C106.64,68.856 88.571,63.853 66.306,63.853 C44.041,63.853 25.973,68.856 25.785,75.049 L25.78,75.049 L25.78,87.722 C35.176,89.1 48.409,90.429 64.492,90.429 C83.707,90.429 97.276,89.439 106.832,88.205 L106.832,75.049 L106.828,75.049 Z M44.182,76.334 C43.168,77.137 42.155,77.94 41.143,78.745 C40.912,78.929 40.916,78.932 40.998,79.214 C41.275,80.192 41.549,81.171 41.825,82.152 C41.916,82.476 42.01,82.801 42.101,83.13 C42.109,83.158 42.111,83.192 42.124,83.252 C41.835,83.064 41.572,82.894 41.312,82.719 C40.749,82.346 40.184,81.968 39.619,81.593 C39.253,81.348 38.882,81.11 38.519,80.862 C38.42,80.792 38.346,80.794 38.249,80.859 C37.083,81.643 35.917,82.425 34.753,83.208 C34.726,83.227 34.695,83.235 34.64,83.261 C34.709,83.005 34.774,82.774 34.838,82.542 C35.039,81.813 35.243,81.086 35.446,80.36 C35.569,79.922 35.688,79.481 35.814,79.045 C35.837,78.966 35.827,78.925 35.761,78.871 C34.948,78.237 34.137,77.599 33.327,76.961 C32.999,76.703 32.676,76.443 32.313,76.16 C32.399,76.145 32.44,76.137 32.483,76.134 C33.46,76.091 34.44,76.052 35.419,76.014 C35.85,75.997 36.283,75.981 36.712,75.958 C36.756,75.954 36.816,75.91 36.831,75.872 C37.235,74.784 37.636,73.692 38.036,72.605 C38.124,72.36 38.212,72.122 38.303,71.883 C38.318,71.84 38.337,71.802 38.366,71.735 C38.503,72.097 38.632,72.427 38.754,72.761 C38.941,73.263 39.127,73.769 39.313,74.273 C39.503,74.785 39.698,75.296 39.883,75.81 C39.922,75.916 39.969,75.96 40.087,75.963 C41.46,76.007 42.834,76.058 44.203,76.107 C44.267,76.112 44.328,76.123 44.422,76.133 C44.327,76.212 44.256,76.274 44.182,76.334 Z M74.69,75.549 C73.329,76.627 71.97,77.706 70.61,78.787 C70.3,79.032 70.305,79.035 70.415,79.416 C70.787,80.728 71.155,82.042 71.524,83.358 C71.647,83.795 71.772,84.23 71.896,84.67 C71.908,84.706 71.911,84.753 71.925,84.833 C71.54,84.581 71.185,84.354 70.836,84.119 C70.08,83.617 69.322,83.11 68.564,82.606 C68.074,82.278 67.575,81.958 67.087,81.623 C66.953,81.529 66.853,81.532 66.725,81.62 C65.16,82.672 63.595,83.724 62.031,84.774 C61.997,84.797 61.954,84.81 61.881,84.843 C61.975,84.5 62.059,84.19 62.146,83.877 C62.417,82.9 62.69,81.923 62.962,80.949 C63.127,80.36 63.288,79.769 63.458,79.183 C63.486,79.078 63.473,79.02 63.385,78.95 C62.293,78.1 61.205,77.243 60.118,76.385 C59.678,76.04 59.243,75.693 58.759,75.312 C58.871,75.291 58.926,75.281 58.985,75.276 C60.297,75.219 61.612,75.166 62.926,75.115 C63.507,75.094 64.087,75.07 64.662,75.04 C64.72,75.036 64.803,74.975 64.823,74.925 C65.366,73.464 65.903,72 66.44,70.539 C66.558,70.212 66.675,69.892 66.797,69.571 C66.816,69.512 66.842,69.463 66.883,69.372 C67.067,69.859 67.238,70.303 67.403,70.75 C67.655,71.424 67.903,72.102 68.154,72.779 C68.408,73.466 68.671,74.151 68.92,74.843 C68.971,74.984 69.035,75.043 69.194,75.047 C71.036,75.107 72.879,75.174 74.718,75.241 C74.804,75.246 74.885,75.262 75.013,75.275 C74.884,75.385 74.788,75.469 74.69,75.549 Z M100.571,76.334 C99.557,77.137 98.545,77.94 97.532,78.745 C97.3,78.929 97.305,78.932 97.386,79.214 C97.663,80.192 97.938,81.171 98.212,82.152 C98.305,82.476 98.398,82.801 98.49,83.13 C98.497,83.158 98.501,83.192 98.511,83.252 C98.224,83.064 97.961,82.894 97.699,82.719 C97.136,82.346 96.571,81.968 96.007,81.593 C95.641,81.348 95.27,81.11 94.907,80.862 C94.807,80.792 94.733,80.794 94.636,80.859 C93.47,81.643 92.306,82.425 91.141,83.208 C91.114,83.227 91.083,83.235 91.029,83.261 C91.097,83.005 91.162,82.774 91.226,82.542 C91.428,81.813 91.632,81.086 91.835,80.36 C91.957,79.922 92.076,79.481 92.202,79.045 C92.225,78.966 92.215,78.925 92.15,78.871 C91.337,78.237 90.525,77.599 89.717,76.961 C89.387,76.703 89.063,76.443 88.702,76.16 C88.788,76.145 88.829,76.137 88.871,76.134 C89.85,76.091 90.829,76.052 91.808,76.014 C92.238,75.997 92.671,75.981 93.101,75.958 C93.145,75.954 93.205,75.91 93.221,75.872 C93.626,74.784 94.026,73.692 94.426,72.605 C94.515,72.36 94.602,72.122 94.693,71.883 C94.706,71.84 94.726,71.802 94.757,71.735 C94.893,72.097 95.02,72.427 95.145,72.761 C95.332,73.263 95.516,73.769 95.704,74.273 C95.893,74.785 96.089,75.296 96.274,75.81 C96.313,75.916 96.359,75.96 96.478,75.963 C97.849,76.007 99.223,76.058 100.594,76.107 C100.658,76.112 100.718,76.123 100.813,76.133 C100.715,76.212 100.644,76.274 100.571,76.334 Z" id="Shape" fill="#1A2D4B"></path>
                <path d="M37.451,62.362 C39.668,61.744 42.093,61.206 44.679,60.752 L44.679,1.991 C37.069,3.518 30.972,5.762 26.178,8.139 L26.178,67.819 L26.309,67.819 C28.338,65.705 32.092,63.855 37.451,62.362 M66.704,59.013 C69.492,59.013 72.238,59.089 74.912,59.241 L74.912,0.246 C72.424,0.087 69.818,0.001 67.085,0.001 C63.296,0.001 59.742,0.165 56.409,0.464 L56.409,59.376 C59.733,59.136 63.186,59.013 66.704,59.013 M95.97,62.805 C100.952,64.193 104.548,65.888 106.66,67.819 L106.968,67.819 L106.968,9.026 C102.261,6.563 96.18,4.207 88.464,2.6 L88.464,61.146 C91.155,61.61 93.673,62.165 95.97,62.805" id="Shape" fill="#CF1D2A"></path>
                <path d="M0.004,87.599 L0.087,94.54 C2.007,94.907 4.099,95.284 6.365,95.662 C18.74,97.72 38.851,100.173 64.39,100.173 C99.792,100.173 120.719,97.698 132.98,95.357 L132.98,87.569 L132.967,87.564 C132.943,87.266 132.876,86.964 132.761,86.672 C132.125,85.041 130.288,84.236 128.658,84.872 C128.343,84.995 127.999,85.138 127.602,85.302 C122.647,87.347 107.568,93.573 64.673,93.573 C45.167,93.573 29.805,91.122 20.354,89.063 C10.106,86.833 4.402,84.572 4.345,84.548 C2.723,83.899 0.88,84.685 0.228,86.306 C0.103,86.617 0.032,86.932 0.008,87.249 L0,87.26 L0.002,87.477 C0.002,87.518 0.002,87.558 0.004,87.599" id="path28" fill="#1A2D4B"></path>
            </g>
        </g>
    </g>
</svg>