<?xml version="1.0" encoding="utf-8"?>
<!-- Generator: Adobe Illustrator 24.1.0, SVG Export Plug-In . SVG Version: 6.00 Build 0)  -->
<svg version="1.1" id="Layer_1" xmlns="http://www.w3.org/2000/svg" xmlns:xlink="http://www.w3.org/1999/xlink" x="0px" y="0px"
	 viewBox="0 0 415 85" style="enable-background:new 0 0 415 85;" xml:space="preserve">
<style type="text/css">
	.st0{fill-rule:evenodd;clip-rule:evenodd;fill:#CC202A;}
	.st1{fill-rule:evenodd;clip-rule:evenodd;fill:#112E4F;}
	.st2{fill-rule:evenodd;clip-rule:evenodd;fill:#FFFFFF;}
	.st3{fill:#112E4F;}
	.st4{fill:#0F2E4E;}
</style>
<path class="st0" d="M31.9,52.9c1.9-0.5,3.9-1,6.1-1.4V1.7c-5.5,1-10.7,2.8-15.7,5.2v50.6h0.1C24.1,55.8,27.3,54.2,31.9,52.9z"/>
<path class="st1" d="M90.9,63.7c-0.2-5.2-15.5-9.5-34.5-9.5s-34.3,4.2-34.5,9.5l0,0v10.8c10.9,1.6,21.9,2.3,32.9,2.3
	c12,0.1,24.1-0.5,36-1.9L90.9,63.7L90.9,63.7z"/>
<path class="st2" d="M27.5,64.6h0.1l2.5-0.1h1.1c0,0,0.1,0,0.1-0.1c0.4-0.9,0.7-1.8,1-2.8c0.1-0.2,0.2-0.4,0.2-0.6c0,0,0-0.1,0-0.1
	c0.1,0.3,0.2,0.6,0.3,0.9l0.6,1.2l0.5,1.3c0,0.1,0.1,0.1,0.2,0.1c1.2,0,2.3,0.1,3.5,0.1h0.2l-0.2,0.2l-2.6,2
	c-0.2,0.2-0.2,0.2-0.1,0.4c0.2,0.8,0.5,1.7,0.7,2.5l0.2,0.8c0,0,0,0.1,0,0.1l-0.7-0.4l-1.4-1c-0.3-0.2-0.6-0.4-0.9-0.6
	c-0.1-0.1-0.2-0.1-0.2,0l-3,2l-0.1,0.1c0.1-0.2,0.1-0.4,0.2-0.6l0.5-1.8c0.1-0.4,0.2-0.8,0.3-1.1c0-0.1,0-0.1,0-0.2l-2-1.5
	L27.5,64.6z"/>
<path class="st2" d="M50,63.9h0.2l3.3-0.1l1.5-0.1c0.1,0,0.1,0,0.1-0.1c0.5-1.2,0.9-2.5,1.4-3.7l0.3-0.8l0.1-0.2
	c0.2,0.4,0.3,0.8,0.4,1.2c0.2,0.6,0.4,1.2,0.6,1.7s0.4,1.2,0.7,1.8c0,0.1,0.1,0.2,0.2,0.2l4.7,0.2h0.2l-0.3,0.2l-3.5,2.7
	c-0.3,0.2-0.3,0.2-0.2,0.5c0.3,1.1,0.6,2.2,1,3.3c0.1,0.4,0.2,0.7,0.3,1.1c0,0,0,0.1,0,0.1l-0.9-0.6l-1.9-1.3L57,69.2
	c-0.1-0.1-0.2-0.1-0.3,0l-4,2.7L52.6,72c0.1-0.3,0.2-0.6,0.2-0.8l0.7-2.5l0.4-1.5c0-0.1,0-0.2-0.1-0.2l-2.8-2.2L50,63.9z"/>
<path class="st2" d="M75.5,64.6h0.1l2.5-0.1h1.1c0,0,0.1,0,0.1-0.1c0.3-0.9,0.7-1.8,1-2.8c0.1-0.2,0.2-0.4,0.2-0.6l0.1-0.1
	c0.1,0.3,0.2,0.6,0.3,0.9s0.3,0.8,0.5,1.3s0.3,0.9,0.5,1.3c0,0.1,0.1,0.1,0.2,0.1c1.2,0,2.3,0.1,3.5,0.1h0.2l-0.2,0.2l-2.6,2
	c-0.2,0.2-0.2,0.2-0.1,0.4c0.2,0.8,0.5,1.7,0.7,2.5l0.2,0.8c0,0,0,0.1,0,0.1l-0.7-0.4l-1.4-1l-0.9-0.6c-0.1-0.1-0.2-0.1-0.2,0l-3,2
	l-0.1,0.1c0-0.2,0.1-0.4,0.2-0.6c0.2-0.6,0.3-1.2,0.5-1.8c0.1-0.4,0.2-0.8,0.3-1.1c0-0.1,0-0.1,0-0.2l-2-1.6L75.5,64.6z"/>
<path class="st0" d="M56.8,50.1c2.4,0,4.7,0.1,7,0.2V0.2C61.6,0.1,59.4,0,57.1,0c-3.2,0-6.2,0.1-9.1,0.4v50
	C50.8,50.2,53.8,50.1,56.8,50.1L56.8,50.1z"/>
<path class="st0" d="M81.7,53.3c4.2,1.2,7.3,2.6,9.1,4.3H91V7.7c-5-2.5-10.3-4.4-15.7-5.4v49.7C77.6,52.3,79.7,52.8,81.7,53.3z"/>
<path class="st1" d="M0,74.3l0.1,5.9c1.6,0.3,3.4,0.6,5.3,1c16.3,2.6,32.8,3.9,49.4,3.8c30.1,0,47.9-2.1,58.4-4.1v-6.6l0,0
	c0-0.3-0.1-0.5-0.2-0.8c-0.5-1.4-2.1-2.1-3.5-1.6c0,0,0,0,0,0l-0.9,0.4c-4.2,1.7-17,7-53.5,7c-12.7,0.1-25.3-1.2-37.7-3.8
	c-4.6-0.9-9.2-2.2-13.6-3.8c-1.4-0.6-2.9,0.1-3.5,1.5c0,0,0,0,0,0C0.1,73.5,0,73.7,0,74l0,0V74.3L0,74.3z"/>
<path class="st3" d="M247.5,45.3c-0.4,1.3-0.8,2.7-1.3,4c-2.3,5.4-4.6,10.8-6.9,16.2c-0.5,1.3-1.1,2.5-1.7,3.8
	c-0.2,0.6-0.7,0.9-1.3,0.9c-1.3,0-2.6,0.1-3.9,0c-0.5-0.1-1-0.4-1.3-0.8c-2.5-5.5-5-11-7.4-16.5c-0.9-2-1.4-4.2-2.1-6.3
	c-0.1-0.3-0.2-0.7-0.4-1h-0.3c0,0.4,0,0.8,0,1.2c0.9,9.8,0.9,19.7,0.9,29.5c0,1.9,0,1.9-2,1.9c-2.4,0-4.8,0-7.1,0
	c-1,0-1.4-0.3-1.4-1.4c0-18.3,0-36.6,0-54.8c0-1,0.3-1.5,1.4-1.4c2.3,0,4.5,0,6.8,0c0.7-0.1,1.3,0.3,1.5,1c4,9.5,8,19.1,12,28.6
	c0.6,1.3,0.9,2.8,1.4,4.4c0.1-0.5,0.2-0.7,0.3-1c1.8-4.4,3.4-8.9,5.2-13.3c2.6-6.2,5.2-12.4,7.8-18.6c0.2-0.7,0.8-1.1,1.5-1.1
	c2.3,0.1,4.5,0.1,6.8,0c1.1,0,1.4,0.4,1.4,1.4c0,18.2,0,36.5,0,54.7c0,1.4-0.1,1.5-1.5,1.5c-2.5,0-5.1,0-7.6,0c-1,0-1.4-0.3-1.4-1.3
	c0.3-9.1,0.5-18.2,0.8-27.3c0-1.3,0.2-2.7,0.3-4L247.5,45.3L247.5,45.3z"/>
<path class="st3" d="M203.6,76.2c-3.3-11-6.7-21.9-10.1-32.9c-2.2-7.3-4.5-14.5-6.6-21.8c-0.1-0.7-0.8-1.2-1.5-1.1c0,0,0,0,0,0
	c-1.9,0-3.7,0.1-5.6,0c-0.8-0.1-1.6,0.4-1.7,1.2c0,0,0,0,0,0.1c-3.2,10.7-6.5,21.4-9.8,32.2c-2.3,7.6-4.6,15.2-6.9,22.8
	c-0.4,1.2-0.1,1.4,1.1,1.4c2.9,0,5.7,0,8.6,0c0.7,0.1,1.3-0.4,1.4-1c0.8-2.8,1.6-5.7,2.4-8.5c0.1-0.8,0.8-1.3,1.5-1.2c0,0,0,0,0.1,0
	c4.1,0,8.1,0,12.2,0c0.8-0.1,1.5,0.4,1.6,1.2c0,0,0,0,0,0c0.8,2.8,1.6,5.7,2.4,8.5c0.1,0.7,0.8,1.1,1.5,1c1.4-0.1,2.9,0,4.3,0
	s2.6,0,4,0C203.9,78,204.1,77.8,203.6,76.2L203.6,76.2z M186.3,57.5c-0.2,0.1-0.4,0.1-0.6,0.1c-2.1,0-4.2,0-6.4,0
	c-0.1,0-0.3,0-0.4,0c-1.2,0-0.6-1.3-0.6-1.3l4.2-17.8c0,0,2.9,12.3,4,16.7c0.1,0.3,0.2,0.7,0.3,1c0,0.1,0.1,0.3,0.1,0.4
	c0.1,0.2,0.1,0.4,0,0.5l0,0l0,0c-0.1,0.1-0.2,0.2-0.4,0.3L186.3,57.5z"/>
<path class="st3" d="M146.9,47.7c-1.7-1.1-3.4-2-5.1-2.9c-2.6-1.3-5.4-2.4-8-3.8c-2-1-3.6-2.5-3.8-5c-0.2-2.4,1-4.7,3.1-5.9
	c3.5-2.2,8-1.2,10.3,2.2c0.4,0.6,0.8,1.3,1.1,2c0.3,0.8,0.8,0.9,1.5,0.5c2.5-1.3,5-2.6,7.5-3.8c0.5-0.2,0.8-0.7,0.6-1.3
	c0-0.1-0.1-0.2-0.1-0.2c-1-2.2-2.4-4.2-4.1-5.8c-0.3-0.3-0.6-0.6-1-0.8c-0.3-0.2-0.6-0.4-0.9-0.6l0,0c-1-0.7-2.1-1.2-3.2-1.6l0,0
	c-0.1,0-0.2-0.1-0.3-0.1l-0.4-0.1H144l-0.4-0.1l-0.2,0l-0.4-0.1h-0.2l-0.4-0.1l-0.2,0l-0.3-0.1l-0.3,0l-0.3,0H141h-0.2l-0.6-0.1l0,0
	c-1.5-0.1-3.1-0.2-4.6-0.1l0,0c-0.6,0-1.2,0.1-1.8,0.1l0,0h-0.3l0,0l-0.3,0l0,0h-0.3l0,0c-0.4,0.1-0.8,0.2-1.2,0.3h-0.1l-0.2,0h-0.1
	l-0.2,0H131h-0.2h-0.1h-0.2l-1,0.3l0,0c-0.5,0.2-0.9,0.4-1.4,0.6l0,0l-0.2,0.1c-8.2,4-10.2,14-6.9,21.5c1.6,3.6,4.5,6,7.9,7.9
	s7.1,3.6,10.7,5.5c0.9,0.6,1.7,1.2,2.5,2c2.1,1.7,2.9,4.6,1.9,7.1c-0.1,0.3-0.2,0.5-0.4,0.8l0,0c-0.6,1.2-1.6,2.2-2.9,2.8l-0.5,0.2
	l0,0c-2.5,0.9-5.1,1-7.6,0.3l0,0c-0.7-0.2-1.4-0.5-1.9-0.9c-0.3-0.2-0.6-0.5-0.8-0.8l0,0c-0.3-0.3-0.6-0.7-0.8-1.1l0,0
	c-0.5-0.7-0.9-1.4-1.4-2.2s-0.6-1-1.4-0.6c-2.6,1.3-5.2,2.6-7.8,4c-0.5,0.1-0.7,0.6-0.6,1.1c0,0.1,0.1,0.2,0.1,0.2
	c2.1,4.3,5.1,7.8,9.9,9.3c4,1.2,8.2,1.1,12.3,0.7c2.2-0.3,4.3-0.9,6.2-1.9c5.1-2.5,7.7-6.8,8.2-12.4C155.4,57.4,153,51.7,146.9,47.7
	L146.9,47.7z"/>
<path class="st0" d="M262,71.5h0.3l4.8-0.2l2.1-0.1c0.1,0,0.2-0.1,0.2-0.1l2-5.4c0.1-0.4,0.3-0.8,0.4-1.2c0-0.1,0.1-0.2,0.1-0.2
	c0.2,0.6,0.4,1.1,0.6,1.7c0.3,0.8,0.6,1.7,0.9,2.5l0.9,2.5c0,0.2,0.2,0.3,0.3,0.2l6.8,0.2h0.4l-0.4,0.3l-5,4
	c-0.4,0.3-0.4,0.3-0.2,0.8c0.5,1.6,0.9,3.2,1.4,4.8c0.1,0.5,0.3,1.1,0.5,1.6c0,0.1,0,0.1,0,0.2l-1.3-0.9l-2.8-1.9
	c-0.6-0.4-1.2-0.8-1.8-1.2c-0.1-0.1-0.3-0.1-0.4,0L266,83l-0.2,0.1c0.1-0.4,0.2-0.8,0.3-1.2l1-3.6c0.2-0.7,0.4-1.4,0.6-2.2
	c0.1-0.1,0-0.2-0.1-0.3c-1.3-1-2.7-2.1-4-3.1L262,71.5z"/>
<path class="st3" d="M304.4,33.5c0.8,0.1,1.5,0.1,2.3,0.3c4.7,0.8,8.6,3.8,10.7,8c1,2,1.8,4.1,2.2,6.2c0,0.1,0,0.1,0,0.2h-4.2
	c-0.1-0.5-0.3-1.1-0.4-1.7c-0.5-1.8-1.3-3.4-2.3-4.9c-1.5-2.1-3.7-3.5-6.2-4c-2.6-0.6-5.4-0.4-7.9,0.6c-2,0.7-3.7,2.1-4.9,3.8
	c-1.6,2.4-2.7,5.2-3.1,8.1c-0.6,3.7-0.7,7.4-0.3,11c0.2,2.7,0.8,5.3,1.9,7.8c1,2.4,2.7,4.5,5,5.8c1.2,0.7,2.6,1.2,4,1.4
	c2.3,0.4,4.6,0.2,6.8-0.5c1.9-0.7,3.6-1.9,4.8-3.5c1.6-2.2,2.6-4.7,3-7.4c0.3-1.8,0.4-3.6,0.6-5.5c0-0.2,0-0.4,0-0.6h-12.8V55h17.1
	c0,0.3,0,0.6,0.1,0.9c0.1,3.4-0.2,6.7-1,10c-0.7,3.1-2,6.1-3.9,8.7c-2.3,3-5.8,5-9.6,5.4c-0.7,0.1-1.5,0.2-2.2,0.2h-1
	c-0.8-0.1-1.5-0.1-2.3-0.2c-4.1-0.5-7.8-2.7-10.3-6c-1.7-2.4-3-5.1-3.7-8c-0.6-2.5-0.9-5-1-7.5c0-0.5,0-0.9-0.1-1.3v-0.7
	c0-0.2,0-0.3,0-0.5c0.1-1.7,0.2-3.4,0.4-5.1c0.4-3.6,1.6-7.1,3.6-10.2c2.4-3.8,6.3-6.4,10.8-7c0.6-0.1,1.1-0.2,1.7-0.2L304.4,33.5z"
	/>
<path class="st3" d="M343.7,80.2c-0.8-0.1-1.5-0.1-2.3-0.2c-3.9-0.5-7.4-2.4-9.9-5.5c-1.8-2.3-3.1-5-3.9-7.8c-0.6-2.2-1-4.5-1.1-6.8
	c-0.2-2.6-0.1-5.3,0.2-7.9c0.3-3.4,1.3-6.7,2.8-9.7c1.8-3.9,5.2-6.8,9.3-8c1.2-0.3,2.5-0.5,3.8-0.7l0.4-0.1h2.5
	c0.7,0.1,1.5,0.2,2.2,0.3c4.4,0.7,8.2,3.4,10.5,7.2c1.5,2.6,2.6,5.4,3.1,8.3c0.5,2.8,0.8,5.6,0.7,8.5c0,2.7-0.4,5.4-1,8
	c-0.7,3.2-2.1,6.2-4.2,8.8c-2.2,2.7-5.3,4.6-8.7,5.2c-1,0.2-2,0.2-3,0.4h-0.3L343.7,80.2z M357.7,56.7c0-2.2-0.2-4.5-0.5-6.7
	c-0.4-2.8-1.4-5.5-3-7.8c-1.5-2.3-3.8-3.9-6.5-4.5c-2.6-0.6-5.4-0.5-8,0.3c-2.2,0.7-4,2.1-5.3,4c-1.8,2.7-2.9,5.9-3.2,9.1
	c-0.3,2.5-0.4,5-0.3,7.5c0.1,2.1,0.3,4.1,0.7,6.1c0.4,2.4,1.4,4.6,2.7,6.6c1.6,2.4,4.1,4.1,7,4.7c2.4,0.5,4.9,0.4,7.2-0.3
	c1.8-0.5,3.4-1.5,4.7-2.9c1.8-2,3-4.4,3.6-7C357.3,62.9,357.7,59.8,357.7,56.7L357.7,56.7z"/>
<path class="st3" d="M400,34.5c-0.4,1-0.7,2-1,2.9c-4.7,13.8-9.4,27.6-14.1,41.4c0,0.2-0.3,0.4-0.5,0.4c-1.2,0-2.3,0-3.5,0
	c-0.3,0-0.5-0.1-0.5-0.4l-10-29.2c-1.7-4.9-3.4-9.9-5.1-14.8c0-0.1-0.1-0.2-0.1-0.3h0.3c1.3,0,2.5,0,3.8,0c0.2,0,0.4,0.1,0.5,0.3
	c4.2,12.5,8.4,25.1,12.6,37.6c0,0.2,0.1,0.3,0.2,0.4c0-0.1,0.1-0.2,0.1-0.4c4.2-12.5,8.4-25,12.5-37.5c0.1-0.4,0.3-0.5,0.7-0.5
	C397.3,34.5,398.6,34.5,400,34.5L400,34.5z"/>
<path class="st4" d="M407,41.6h0.8c0.9,0,1.6-0.3,1.6-1s-0.5-1-1.5-1c-0.3,0-0.6,0-0.9,0.1V41.6L407,41.6z M407,45.6h-1.6v-7
	c0.9-0.2,1.7-0.2,2.6-0.2c0.8-0.1,1.6,0.1,2.4,0.5c0.4,0.4,0.7,0.9,0.7,1.5c-0.1,0.8-0.7,1.4-1.5,1.6v0.1c0.7,0.3,1.2,0.9,1.2,1.7
	c0.1,0.6,0.2,1.2,0.5,1.7h-1.7c-0.3-0.5-0.4-1.1-0.5-1.7c-0.1-0.8-0.5-1.1-1.4-1.1h-0.8L407,45.6L407,45.6z M402.8,42
	c-0.1,2.9,2.2,5.4,5.1,5.6c0.1,0,0.1,0,0.2,0c2.9-0.1,5.2-2.5,5.1-5.4c0,0,0-0.1,0-0.1c0.1-2.9-2.1-5.4-5-5.5s-5.4,2.1-5.5,5
	C402.7,41.7,402.7,41.8,402.8,42L402.8,42z M415.1,42c0,3.9-3.1,7-7,7s-7-3.1-7-7s3.1-7,7-7c3.8-0.1,6.9,3,7,6.8
	C415.1,41.8,415.1,41.9,415.1,42z"/>
</svg>
